<?xml version="1.0" encoding="UTF-8" standalone="no"?>
<!DOCTYPE svg PUBLIC "-//W3C//DTD SVG 1.1//EN"
 "http://www.w3.org/Graphics/SVG/1.1/DTD/svg11.dtd">
<!-- Generated by graphviz version 2.47.0 (20210316.0004)
 -->
<!-- Title: dependencies Pages: 1 -->
<svg width="882pt" height="284pt"
 viewBox="0.00 0.00 882.00 284.00" xmlns="http://www.w3.org/2000/svg" xmlns:xlink="http://www.w3.org/1999/xlink">
<g id="graph0" class="graph" transform="scale(1 1) rotate(0) translate(4 280)">
<title>dependencies</title>
<polygon fill="white" stroke="transparent" points="-4,4 -4,-280 878,-280 878,4 -4,4"/>
<text text-anchor="start" x="416.01" y="-42.4" font-family="Times-12" font-weight="bold" font-size="14.00">Legend</text>
<polygon fill="#ffffb3" stroke="transparent" points="203,-10 203,-30 223,-30 223,-10 203,-10"/>
<text text-anchor="start" x="226.63" y="-15.4" font-family="Times-12" font-size="14.00"> &#160;Declarations</text>
<polygon fill="#8dd3c7" stroke="transparent" points="316,-10 316,-30 336,-30 336,-10 316,-10"/>
<text text-anchor="start" x="339.73" y="-15.4" font-family="Times-12" font-size="14.00"> &#160;Module</text>
<polygon fill="#80b1d3" stroke="transparent" points="402,-10 402,-30 422,-30 422,-10 402,-10"/>
<text text-anchor="start" x="425.78" y="-15.4" font-family="Times-12" font-size="14.00"> &#160;Bootstrap</text>
<polygon fill="#fdb462" stroke="transparent" points="499,-10 499,-30 519,-30 519,-10 499,-10"/>
<text text-anchor="start" x="522.67" y="-15.4" font-family="Times-12" font-size="14.00"> &#160;Providers</text>
<polygon fill="#fb8072" stroke="transparent" points="595,-10 595,-30 615,-30 615,-10 595,-10"/>
<text text-anchor="start" x="618.73" y="-15.4" font-family="Times-12" font-size="14.00"> &#160;Exports</text>
<g id="clust1" class="cluster">
<title>cluster_EventsModule</title>
<polygon fill="none" stroke="black" stroke-dasharray="1,5" points="8,-70 8,-268 866,-268 866,-70 8,-70"/>
</g>
<g id="clust6" class="cluster">
<title>cluster_EventsModule_providers</title>
<polygon fill="none" stroke="black" points="284,-78 284,-130 858,-130 858,-78 284,-78"/>
</g>
<g id="clust4" class="cluster">
<title>cluster_EventsModule_exports</title>
<polygon fill="none" stroke="black" points="239,-208 239,-260 525,-260 525,-208 239,-208"/>
</g>
<g id="clust3" class="cluster">
<title>cluster_EventsModule_imports</title>
<polygon fill="none" stroke="black" points="16,-78 16,-130 276,-130 276,-78 16,-78"/>
</g>
<!-- PaginationModule -->
<g id="node1" class="node">
<title>PaginationModule</title>
<polygon fill="#8dd3c7" stroke="black" points="267.93,-122 264.93,-126 243.93,-126 240.93,-122 148.07,-122 148.07,-86 267.93,-86 267.93,-122"/>
<text text-anchor="middle" x="208" y="-99.8" font-family="Times,serif" font-size="14.00">PaginationModule</text>
</g>
<!-- EventsModule -->
<g id="node3" class="node">
<title>EventsModule</title>
<polygon fill="#8dd3c7" stroke="black" points="443.65,-187 440.65,-191 419.65,-191 416.65,-187 346.35,-187 346.35,-151 443.65,-151 443.65,-187"/>
<text text-anchor="middle" x="395" y="-164.8" font-family="Times,serif" font-size="14.00">EventsModule</text>
</g>
<!-- PaginationModule&#45;&gt;EventsModule -->
<g id="edge1" class="edge">
<title>PaginationModule&#45;&gt;EventsModule</title>
<path fill="none" stroke="black" d="M257.25,-122.02C257.25,-139.37 257.25,-163 257.25,-163 257.25,-163 336.05,-163 336.05,-163"/>
<polygon fill="black" stroke="black" points="336.05,-166.5 346.05,-163 336.05,-159.5 336.05,-166.5"/>
</g>
<!-- UploadsModule -->
<g id="node2" class="node">
<title>UploadsModule</title>
<polygon fill="#8dd3c7" stroke="black" points="130.21,-122 127.21,-126 106.21,-126 103.21,-122 23.79,-122 23.79,-86 130.21,-86 130.21,-122"/>
<text text-anchor="middle" x="77" y="-99.8" font-family="Times,serif" font-size="14.00">UploadsModule</text>
</g>
<!-- UploadsModule&#45;&gt;EventsModule -->
<g id="edge2" class="edge">
<title>UploadsModule&#45;&gt;EventsModule</title>
<path fill="none" stroke="black" d="M77,-122.28C77,-143.32 77,-175 77,-175 77,-175 336.01,-175 336.01,-175"/>
<polygon fill="black" stroke="black" points="336.01,-178.5 346.01,-175 336.01,-171.5 336.01,-178.5"/>
</g>
<!-- EventsService  -->
<g id="node4" class="node">
<title>EventsService </title>
<polygon fill="#fb8072" stroke="black" points="516.58,-252 417.42,-252 417.42,-216 516.58,-216 516.58,-252"/>
<text text-anchor="middle" x="467" y="-229.8" font-family="Times,serif" font-size="14.00">EventsService </text>
</g>
<!-- EventsModule&#45;&gt;EventsService  -->
<g id="edge3" class="edge">
<title>EventsModule&#45;&gt;EventsService </title>
<path fill="none" stroke="black" stroke-dasharray="5,2" d="M430.52,-187.11C430.52,-187.11 430.52,-205.99 430.52,-205.99"/>
<polygon fill="black" stroke="black" points="427.02,-205.99 430.52,-215.99 434.02,-205.99 427.02,-205.99"/>
</g>
<!-- GetUserEventsProvider  -->
<g id="node5" class="node">
<title>GetUserEventsProvider </title>
<polygon fill="#fb8072" stroke="black" points="399.45,-252 246.55,-252 246.55,-216 399.45,-216 399.45,-252"/>
<text text-anchor="middle" x="323" y="-229.8" font-family="Times,serif" font-size="14.00">GetUserEventsProvider </text>
</g>
<!-- EventsModule&#45;&gt;GetUserEventsProvider  -->
<g id="edge4" class="edge">
<title>EventsModule&#45;&gt;GetUserEventsProvider </title>
<path fill="none" stroke="black" stroke-dasharray="5,2" d="M372.7,-187.11C372.7,-187.11 372.7,-205.99 372.7,-205.99"/>
<polygon fill="black" stroke="black" points="369.2,-205.99 372.7,-215.99 376.2,-205.99 369.2,-205.99"/>
</g>
<!-- CreateEventProvider -->
<g id="node6" class="node">
<title>CreateEventProvider</title>
<ellipse fill="#fdb462" stroke="black" cx="758" cy="-104" rx="92.03" ry="18"/>
<text text-anchor="middle" x="758" y="-99.8" font-family="Times,serif" font-size="14.00">CreateEventProvider</text>
</g>
<!-- CreateEventProvider&#45;&gt;EventsModule -->
<g id="edge5" class="edge">
<title>CreateEventProvider&#45;&gt;EventsModule</title>
<path fill="none" stroke="black" d="M758,-122.28C758,-143.32 758,-175 758,-175 758,-175 453.96,-175 453.96,-175"/>
<polygon fill="black" stroke="black" points="453.96,-171.5 443.96,-175 453.96,-178.5 453.96,-171.5"/>
</g>
<!-- EventsService -->
<g id="node7" class="node">
<title>EventsService</title>
<ellipse fill="#fdb462" stroke="black" cx="582" cy="-104" rx="66.05" ry="18"/>
<text text-anchor="middle" x="582" y="-99.8" font-family="Times,serif" font-size="14.00">EventsService</text>
</g>
<!-- EventsService&#45;&gt;EventsModule -->
<g id="edge6" class="edge">
<title>EventsService&#45;&gt;EventsModule</title>
<path fill="none" stroke="black" d="M582.53,-122.02C582.53,-139.37 582.53,-163 582.53,-163 582.53,-163 453.78,-163 453.78,-163"/>
<polygon fill="black" stroke="black" points="453.78,-159.5 443.78,-163 453.78,-166.5 453.78,-159.5"/>
</g>
<!-- GetUserEventsProvider -->
<g id="node8" class="node">
<title>GetUserEventsProvider</title>
<ellipse fill="#fdb462" stroke="black" cx="395" cy="-104" rx="102.99" ry="18"/>
<text text-anchor="middle" x="395" y="-99.8" font-family="Times,serif" font-size="14.00">GetUserEventsProvider</text>
</g>
<!-- GetUserEventsProvider&#45;&gt;EventsModule -->
<g id="edge7" class="edge">
<title>GetUserEventsProvider&#45;&gt;EventsModule</title>
<path fill="none" stroke="black" d="M395,-122.11C395,-122.11 395,-140.99 395,-140.99"/>
<polygon fill="black" stroke="black" points="391.5,-140.99 395,-150.99 398.5,-140.99 391.5,-140.99"/>
</g>
</g>
</svg>
