<?xml version="1.0" encoding="UTF-8" standalone="no"?>
<!DOCTYPE svg PUBLIC "-//W3C//DTD SVG 1.1//EN"
 "http://www.w3.org/Graphics/SVG/1.1/DTD/svg11.dtd">
<!-- Generated by graphviz version 2.47.0 (20210316.0004)
 -->
<!-- Title: dependencies Pages: 1 -->
<svg width="1967pt" height="284pt"
 viewBox="0.00 0.00 1967.00 284.00" xmlns="http://www.w3.org/2000/svg" xmlns:xlink="http://www.w3.org/1999/xlink">
<g id="graph0" class="graph" transform="scale(1 1) rotate(0) translate(4 280)">
<title>dependencies</title>
<polygon fill="white" stroke="transparent" points="-4,4 -4,-280 1963,-280 1963,4 -4,4"/>
<text text-anchor="start" x="958.51" y="-42.4" font-family="Times-12" font-weight="bold" font-size="14.00">Legend</text>
<polygon fill="#ffffb3" stroke="transparent" points="745.5,-10 745.5,-30 765.5,-30 765.5,-10 745.5,-10"/>
<text text-anchor="start" x="769.13" y="-15.4" font-family="Times-12" font-size="14.00"> &#160;Declarations</text>
<polygon fill="#8dd3c7" stroke="transparent" points="858.5,-10 858.5,-30 878.5,-30 878.5,-10 858.5,-10"/>
<text text-anchor="start" x="882.23" y="-15.4" font-family="Times-12" font-size="14.00"> &#160;Module</text>
<polygon fill="#80b1d3" stroke="transparent" points="944.5,-10 944.5,-30 964.5,-30 964.5,-10 944.5,-10"/>
<text text-anchor="start" x="968.28" y="-15.4" font-family="Times-12" font-size="14.00"> &#160;Bootstrap</text>
<polygon fill="#fdb462" stroke="transparent" points="1041.5,-10 1041.5,-30 1061.5,-30 1061.5,-10 1041.5,-10"/>
<text text-anchor="start" x="1065.17" y="-15.4" font-family="Times-12" font-size="14.00"> &#160;Providers</text>
<polygon fill="#fb8072" stroke="transparent" points="1137.5,-10 1137.5,-30 1157.5,-30 1157.5,-10 1137.5,-10"/>
<text text-anchor="start" x="1161.23" y="-15.4" font-family="Times-12" font-size="14.00"> &#160;Exports</text>
<g id="clust1" class="cluster">
<title>cluster_UsersModule</title>
<polygon fill="none" stroke="black" stroke-dasharray="1,5" points="8,-70 8,-268 1951,-268 1951,-70 8,-70"/>
</g>
<g id="clust6" class="cluster">
<title>cluster_UsersModule_providers</title>
<polygon fill="none" stroke="black" points="160,-78 160,-130 1943,-130 1943,-78 160,-78"/>
</g>
<g id="clust3" class="cluster">
<title>cluster_UsersModule_imports</title>
<polygon fill="none" stroke="black" points="16,-78 16,-130 152,-130 152,-78 16,-78"/>
</g>
<g id="clust4" class="cluster">
<title>cluster_UsersModule_exports</title>
<polygon fill="none" stroke="black" points="876,-208 876,-260 986,-260 986,-208 876,-208"/>
</g>
<!-- PaginationModule -->
<g id="node1" class="node">
<title>PaginationModule</title>
<polygon fill="#8dd3c7" stroke="black" points="143.93,-122 140.93,-126 119.93,-126 116.93,-122 24.07,-122 24.07,-86 143.93,-86 143.93,-122"/>
<text text-anchor="middle" x="84" y="-99.8" font-family="Times,serif" font-size="14.00">PaginationModule</text>
</g>
<!-- UsersModule -->
<g id="node2" class="node">
<title>UsersModule</title>
<polygon fill="#8dd3c7" stroke="black" points="976.92,-187 973.92,-191 952.92,-191 949.92,-187 885.08,-187 885.08,-151 976.92,-151 976.92,-187"/>
<text text-anchor="middle" x="931" y="-164.8" font-family="Times,serif" font-size="14.00">UsersModule</text>
</g>
<!-- PaginationModule&#45;&gt;UsersModule -->
<g id="edge1" class="edge">
<title>PaginationModule&#45;&gt;UsersModule</title>
<path fill="none" stroke="black" d="M84,-122.29C84,-144.21 84,-178 84,-178 84,-178 875.16,-178 875.16,-178"/>
<polygon fill="black" stroke="black" points="875.16,-181.5 885.16,-178 875.16,-174.5 875.16,-181.5"/>
</g>
<!-- UsersService  -->
<g id="node3" class="node">
<title>UsersService </title>
<polygon fill="#fb8072" stroke="black" points="977.85,-252 884.15,-252 884.15,-216 977.85,-216 977.85,-252"/>
<text text-anchor="middle" x="931" y="-229.8" font-family="Times,serif" font-size="14.00">UsersService </text>
</g>
<!-- UsersModule&#45;&gt;UsersService  -->
<g id="edge2" class="edge">
<title>UsersModule&#45;&gt;UsersService </title>
<path fill="none" stroke="black" stroke-dasharray="5,2" d="M931,-187.11C931,-187.11 931,-205.99 931,-205.99"/>
<polygon fill="black" stroke="black" points="927.5,-205.99 931,-215.99 934.5,-205.99 927.5,-205.99"/>
</g>
<!-- ChangeUserPasswordProvider -->
<g id="node4" class="node">
<title>ChangeUserPasswordProvider</title>
<ellipse fill="#fdb462" stroke="black" cx="1806" cy="-104" rx="129.05" ry="18"/>
<text text-anchor="middle" x="1806" y="-99.8" font-family="Times,serif" font-size="14.00">ChangeUserPasswordProvider</text>
</g>
<!-- ChangeUserPasswordProvider&#45;&gt;UsersModule -->
<g id="edge3" class="edge">
<title>ChangeUserPasswordProvider&#45;&gt;UsersModule</title>
<path fill="none" stroke="black" d="M1806,-122.29C1806,-144.21 1806,-178 1806,-178 1806,-178 986.81,-178 986.81,-178"/>
<polygon fill="black" stroke="black" points="986.81,-174.5 976.81,-178 986.81,-181.5 986.81,-174.5"/>
</g>
<!-- CreaterUsersProviders -->
<g id="node5" class="node">
<title>CreaterUsersProviders</title>
<ellipse fill="#fdb462" stroke="black" cx="1561" cy="-104" rx="98.39" ry="18"/>
<text text-anchor="middle" x="1561" y="-99.8" font-family="Times,serif" font-size="14.00">CreaterUsersProviders</text>
</g>
<!-- CreaterUsersProviders&#45;&gt;UsersModule -->
<g id="edge4" class="edge">
<title>CreaterUsersProviders&#45;&gt;UsersModule</title>
<path fill="none" stroke="black" d="M1561,-122.11C1561,-141.34 1561,-169 1561,-169 1561,-169 986.82,-169 986.82,-169"/>
<polygon fill="black" stroke="black" points="986.82,-165.5 976.82,-169 986.82,-172.5 986.82,-165.5"/>
</g>
<!-- FindOneByIdProvider -->
<g id="node6" class="node">
<title>FindOneByIdProvider</title>
<ellipse fill="#fdb462" stroke="black" cx="1347" cy="-104" rx="97.3" ry="18"/>
<text text-anchor="middle" x="1347" y="-99.8" font-family="Times,serif" font-size="14.00">FindOneByIdProvider</text>
</g>
<!-- FindOneByIdProvider&#45;&gt;UsersModule -->
<g id="edge5" class="edge">
<title>FindOneByIdProvider&#45;&gt;UsersModule</title>
<path fill="none" stroke="black" d="M1347,-122.03C1347,-138.4 1347,-160 1347,-160 1347,-160 987.11,-160 987.11,-160"/>
<polygon fill="black" stroke="black" points="987.11,-156.5 977.11,-160 987.11,-163.5 987.11,-156.5"/>
</g>
<!-- FindOneUserByEmailProvider -->
<g id="node7" class="node">
<title>FindOneUserByEmailProvider</title>
<ellipse fill="#fdb462" stroke="black" cx="1101" cy="-104" rx="130.8" ry="18"/>
<text text-anchor="middle" x="1101" y="-99.8" font-family="Times,serif" font-size="14.00">FindOneUserByEmailProvider</text>
</g>
<!-- FindOneUserByEmailProvider&#45;&gt;UsersModule -->
<g id="edge6" class="edge">
<title>FindOneUserByEmailProvider&#45;&gt;UsersModule</title>
<path fill="none" stroke="black" d="M970.26,-104C964.78,-104 961.54,-104 961.54,-104 961.54,-104 961.54,-140.89 961.54,-140.89"/>
<polygon fill="black" stroke="black" points="958.04,-140.89 961.54,-150.89 965.04,-140.89 958.04,-140.89"/>
</g>
<!-- FindUserByResetOtpAndExpiryTimeProvider -->
<g id="node8" class="node">
<title>FindUserByResetOtpAndExpiryTimeProvider</title>
<ellipse fill="#fdb462" stroke="black" cx="762" cy="-104" rx="190.95" ry="18"/>
<text text-anchor="middle" x="762" y="-99.8" font-family="Times,serif" font-size="14.00">FindUserByResetOtpAndExpiryTimeProvider</text>
</g>
<!-- FindUserByResetOtpAndExpiryTimeProvider&#45;&gt;UsersModule -->
<g id="edge7" class="edge">
<title>FindUserByResetOtpAndExpiryTimeProvider&#45;&gt;UsersModule</title>
<path fill="none" stroke="black" d="M919.01,-114.44C919.01,-114.44 919.01,-140.97 919.01,-140.97"/>
<polygon fill="black" stroke="black" points="915.51,-140.97 919.01,-150.97 922.51,-140.97 915.51,-140.97"/>
</g>
<!-- StoreOtpAndExpireProvider -->
<g id="node9" class="node">
<title>StoreOtpAndExpireProvider</title>
<ellipse fill="#fdb462" stroke="black" cx="432" cy="-104" rx="121.55" ry="18"/>
<text text-anchor="middle" x="432" y="-99.8" font-family="Times,serif" font-size="14.00">StoreOtpAndExpireProvider</text>
</g>
<!-- StoreOtpAndExpireProvider&#45;&gt;UsersModule -->
<g id="edge8" class="edge">
<title>StoreOtpAndExpireProvider&#45;&gt;UsersModule</title>
<path fill="none" stroke="black" d="M432,-122.03C432,-138.4 432,-160 432,-160 432,-160 874.95,-160 874.95,-160"/>
<polygon fill="black" stroke="black" points="874.95,-163.5 884.95,-160 874.95,-156.5 874.95,-163.5"/>
</g>
<!-- UsersService -->
<g id="node10" class="node">
<title>UsersService</title>
<ellipse fill="#fdb462" stroke="black" cx="230" cy="-104" rx="61.95" ry="18"/>
<text text-anchor="middle" x="230" y="-99.8" font-family="Times,serif" font-size="14.00">UsersService</text>
</g>
<!-- UsersService&#45;&gt;UsersModule -->
<g id="edge9" class="edge">
<title>UsersService&#45;&gt;UsersModule</title>
<path fill="none" stroke="black" d="M230,-122.11C230,-141.34 230,-169 230,-169 230,-169 875.28,-169 875.28,-169"/>
<polygon fill="black" stroke="black" points="875.28,-172.5 885.28,-169 875.28,-165.5 875.28,-172.5"/>
</g>
</g>
</svg>
