<?xml version="1.0" encoding="UTF-8" standalone="no"?>
<!DOCTYPE svg PUBLIC "-//W3C//DTD SVG 1.1//EN"
 "http://www.w3.org/Graphics/SVG/1.1/DTD/svg11.dtd">
<!-- Generated by graphviz version 2.47.0 (20210316.0004)
 -->
<!-- Title: dependencies Pages: 1 -->
<svg width="1238pt" height="284pt"
 viewBox="0.00 0.00 1238.00 284.00" xmlns="http://www.w3.org/2000/svg" xmlns:xlink="http://www.w3.org/1999/xlink">
<g id="graph0" class="graph" transform="scale(1 1) rotate(0) translate(4 280)">
<title>dependencies</title>
<polygon fill="white" stroke="transparent" points="-4,4 -4,-280 1234,-280 1234,4 -4,4"/>
<text text-anchor="start" x="594.01" y="-42.4" font-family="Times-12" font-weight="bold" font-size="14.00">Legend</text>
<polygon fill="#ffffb3" stroke="transparent" points="381,-10 381,-30 401,-30 401,-10 381,-10"/>
<text text-anchor="start" x="404.63" y="-15.4" font-family="Times-12" font-size="14.00"> &#160;Declarations</text>
<polygon fill="#8dd3c7" stroke="transparent" points="494,-10 494,-30 514,-30 514,-10 494,-10"/>
<text text-anchor="start" x="517.73" y="-15.4" font-family="Times-12" font-size="14.00"> &#160;Module</text>
<polygon fill="#80b1d3" stroke="transparent" points="580,-10 580,-30 600,-30 600,-10 580,-10"/>
<text text-anchor="start" x="603.78" y="-15.4" font-family="Times-12" font-size="14.00"> &#160;Bootstrap</text>
<polygon fill="#fdb462" stroke="transparent" points="677,-10 677,-30 697,-30 697,-10 677,-10"/>
<text text-anchor="start" x="700.67" y="-15.4" font-family="Times-12" font-size="14.00"> &#160;Providers</text>
<polygon fill="#fb8072" stroke="transparent" points="773,-10 773,-30 793,-30 793,-10 773,-10"/>
<text text-anchor="start" x="796.73" y="-15.4" font-family="Times-12" font-size="14.00"> &#160;Exports</text>
<g id="clust1" class="cluster">
<title>cluster_AuthModule</title>
<polygon fill="none" stroke="black" stroke-dasharray="1,5" points="8,-70 8,-268 1222,-268 1222,-70 8,-70"/>
</g>
<g id="clust6" class="cluster">
<title>cluster_AuthModule_providers</title>
<polygon fill="none" stroke="black" points="16,-78 16,-130 1214,-130 1214,-78 16,-78"/>
</g>
<g id="clust4" class="cluster">
<title>cluster_AuthModule_exports</title>
<polygon fill="none" stroke="black" points="552,-208 552,-260 682,-260 682,-208 552,-208"/>
</g>
<!-- HashingProvider  -->
<g id="node1" class="node">
<title>HashingProvider </title>
<polygon fill="#fb8072" stroke="black" points="674.37,-252 559.63,-252 559.63,-216 674.37,-216 674.37,-252"/>
<text text-anchor="middle" x="617" y="-229.8" font-family="Times,serif" font-size="14.00">HashingProvider </text>
</g>
<!-- AuthModule -->
<g id="node2" class="node">
<title>AuthModule</title>
<polygon fill="#8dd3c7" stroke="black" points="660.55,-187 657.55,-191 636.55,-191 633.55,-187 573.45,-187 573.45,-151 660.55,-151 660.55,-187"/>
<text text-anchor="middle" x="617" y="-164.8" font-family="Times,serif" font-size="14.00">AuthModule</text>
</g>
<!-- AuthModule&#45;&gt;HashingProvider  -->
<g id="edge1" class="edge">
<title>AuthModule&#45;&gt;HashingProvider </title>
<path fill="none" stroke="black" stroke-dasharray="5,2" d="M617,-187.11C617,-187.11 617,-205.99 617,-205.99"/>
<polygon fill="black" stroke="black" points="613.5,-205.99 617,-215.99 620.5,-205.99 613.5,-205.99"/>
</g>
<!-- AuthService -->
<g id="node3" class="node">
<title>AuthService</title>
<ellipse fill="#fdb462" stroke="black" cx="1147" cy="-104" rx="59.11" ry="18"/>
<text text-anchor="middle" x="1147" y="-99.8" font-family="Times,serif" font-size="14.00">AuthService</text>
</g>
<!-- AuthService&#45;&gt;AuthModule -->
<g id="edge2" class="edge">
<title>AuthService&#45;&gt;AuthModule</title>
<path fill="none" stroke="black" d="M1147,-122.28C1147,-143.32 1147,-175 1147,-175 1147,-175 670.82,-175 670.82,-175"/>
<polygon fill="black" stroke="black" points="670.82,-171.5 660.82,-175 670.82,-178.5 670.82,-171.5"/>
</g>
<!-- ForgotPasswordProvider -->
<g id="node4" class="node">
<title>ForgotPasswordProvider</title>
<ellipse fill="#fdb462" stroke="black" cx="963" cy="-104" rx="107.1" ry="18"/>
<text text-anchor="middle" x="963" y="-99.8" font-family="Times,serif" font-size="14.00">ForgotPasswordProvider</text>
</g>
<!-- ForgotPasswordProvider&#45;&gt;AuthModule -->
<g id="edge3" class="edge">
<title>ForgotPasswordProvider&#45;&gt;AuthModule</title>
<path fill="none" stroke="black" d="M963,-122.02C963,-139.37 963,-163 963,-163 963,-163 670.82,-163 670.82,-163"/>
<polygon fill="black" stroke="black" points="670.82,-159.5 660.82,-163 670.82,-166.5 670.82,-159.5"/>
</g>
<!-- GenerateTokensProvider -->
<g id="node5" class="node">
<title>GenerateTokensProvider</title>
<ellipse fill="#fdb462" stroke="black" cx="730" cy="-104" rx="107.63" ry="18"/>
<text text-anchor="middle" x="730" y="-99.8" font-family="Times,serif" font-size="14.00">GenerateTokensProvider</text>
</g>
<!-- GenerateTokensProvider&#45;&gt;AuthModule -->
<g id="edge4" class="edge">
<title>GenerateTokensProvider&#45;&gt;AuthModule</title>
<path fill="none" stroke="black" d="M641.61,-114.44C641.61,-114.44 641.61,-140.97 641.61,-140.97"/>
<polygon fill="black" stroke="black" points="638.11,-140.97 641.61,-150.97 645.11,-140.97 638.11,-140.97"/>
</g>
<!-- RefreshTokenProvider -->
<g id="node6" class="node">
<title>RefreshTokenProvider</title>
<ellipse fill="#fdb462" stroke="black" cx="505" cy="-104" rx="98.98" ry="18"/>
<text text-anchor="middle" x="505" y="-99.8" font-family="Times,serif" font-size="14.00">RefreshTokenProvider</text>
</g>
<!-- RefreshTokenProvider&#45;&gt;AuthModule -->
<g id="edge5" class="edge">
<title>RefreshTokenProvider&#45;&gt;AuthModule</title>
<path fill="none" stroke="black" d="M588.61,-113.87C588.61,-113.87 588.61,-140.91 588.61,-140.91"/>
<polygon fill="black" stroke="black" points="585.11,-140.91 588.61,-150.91 592.11,-140.91 585.11,-140.91"/>
</g>
<!-- ResetPasswordProvider -->
<g id="node7" class="node">
<title>ResetPasswordProvider</title>
<ellipse fill="#fdb462" stroke="black" cx="285" cy="-104" rx="102.51" ry="18"/>
<text text-anchor="middle" x="285" y="-99.8" font-family="Times,serif" font-size="14.00">ResetPasswordProvider</text>
</g>
<!-- ResetPasswordProvider&#45;&gt;AuthModule -->
<g id="edge6" class="edge">
<title>ResetPasswordProvider&#45;&gt;AuthModule</title>
<path fill="none" stroke="black" d="M285,-122.02C285,-139.37 285,-163 285,-163 285,-163 563.26,-163 563.26,-163"/>
<polygon fill="black" stroke="black" points="563.26,-166.5 573.26,-163 563.26,-159.5 563.26,-166.5"/>
</g>
<!-- SignInProvider -->
<g id="node8" class="node">
<title>SignInProvider</title>
<ellipse fill="#fdb462" stroke="black" cx="94" cy="-104" rx="70.08" ry="18"/>
<text text-anchor="middle" x="94" y="-99.8" font-family="Times,serif" font-size="14.00">SignInProvider</text>
</g>
<!-- SignInProvider&#45;&gt;AuthModule -->
<g id="edge7" class="edge">
<title>SignInProvider&#45;&gt;AuthModule</title>
<path fill="none" stroke="black" d="M94,-122.28C94,-143.32 94,-175 94,-175 94,-175 563.31,-175 563.31,-175"/>
<polygon fill="black" stroke="black" points="563.31,-178.5 573.31,-175 563.31,-171.5 563.31,-178.5"/>
</g>
</g>
</svg>
