<?xml version="1.0" encoding="UTF-8" standalone="no"?>
<!DOCTYPE svg PUBLIC "-//W3C//DTD SVG 1.1//EN"
 "http://www.w3.org/Graphics/SVG/1.1/DTD/svg11.dtd">
<!-- Generated by graphviz version 2.47.0 (20210316.0004)
 -->
<!-- Title: dependencies Pages: 1 -->
<svg width="504pt" height="211pt"
 viewBox="0.00 0.00 504.00 211.00" xmlns="http://www.w3.org/2000/svg" xmlns:xlink="http://www.w3.org/1999/xlink">
<g id="graph0" class="graph" transform="scale(1 1) rotate(0) translate(4 207)">
<title>dependencies</title>
<polygon fill="white" stroke="transparent" points="-4,4 -4,-207 500,-207 500,4 -4,4"/>
<text text-anchor="start" x="227.01" y="-42.4" font-family="Times-12" font-weight="bold" font-size="14.00">Legend</text>
<polygon fill="#ffffb3" stroke="transparent" points="14,-10 14,-30 34,-30 34,-10 14,-10"/>
<text text-anchor="start" x="37.63" y="-15.4" font-family="Times-12" font-size="14.00"> &#160;Declarations</text>
<polygon fill="#8dd3c7" stroke="transparent" points="127,-10 127,-30 147,-30 147,-10 127,-10"/>
<text text-anchor="start" x="150.73" y="-15.4" font-family="Times-12" font-size="14.00"> &#160;Module</text>
<polygon fill="#80b1d3" stroke="transparent" points="213,-10 213,-30 233,-30 233,-10 213,-10"/>
<text text-anchor="start" x="236.78" y="-15.4" font-family="Times-12" font-size="14.00"> &#160;Bootstrap</text>
<polygon fill="#fdb462" stroke="transparent" points="310,-10 310,-30 330,-30 330,-10 310,-10"/>
<text text-anchor="start" x="333.67" y="-15.4" font-family="Times-12" font-size="14.00"> &#160;Providers</text>
<polygon fill="#fb8072" stroke="transparent" points="406,-10 406,-30 426,-30 426,-10 406,-10"/>
<text text-anchor="start" x="429.73" y="-15.4" font-family="Times-12" font-size="14.00"> &#160;Exports</text>
<g id="clust1" class="cluster">
<title>cluster_PaystackModule</title>
<polygon fill="none" stroke="black" stroke-dasharray="1,5" points="34,-70 34,-195 462,-195 462,-70 34,-70"/>
</g>
<g id="clust6" class="cluster">
<title>cluster_PaystackModule_providers</title>
<polygon fill="none" stroke="black" points="290,-78 290,-130 454,-130 454,-78 290,-78"/>
</g>
<g id="clust3" class="cluster">
<title>cluster_PaystackModule_imports</title>
<polygon fill="none" stroke="black" points="42,-78 42,-130 282,-130 282,-78 42,-78"/>
</g>
<!-- TicketsModule -->
<g id="node1" class="node">
<title>TicketsModule</title>
<polygon fill="#8dd3c7" stroke="black" points="274.26,-122 271.26,-126 250.26,-126 247.26,-122 173.74,-122 173.74,-86 274.26,-86 274.26,-122"/>
<text text-anchor="middle" x="224" y="-99.8" font-family="Times,serif" font-size="14.00">TicketsModule</text>
</g>
<!-- PaystackModule -->
<g id="node3" class="node">
<title>PaystackModule</title>
<polygon fill="#8dd3c7" stroke="black" points="278.81,-187 275.81,-191 254.81,-191 251.81,-187 169.19,-187 169.19,-151 278.81,-151 278.81,-187"/>
<text text-anchor="middle" x="224" y="-164.8" font-family="Times,serif" font-size="14.00">PaystackModule</text>
</g>
<!-- TicketsModule&#45;&gt;PaystackModule -->
<g id="edge1" class="edge">
<title>TicketsModule&#45;&gt;PaystackModule</title>
<path fill="none" stroke="black" d="M224,-122.11C224,-122.11 224,-140.99 224,-140.99"/>
<polygon fill="black" stroke="black" points="220.5,-140.99 224,-150.99 227.5,-140.99 220.5,-140.99"/>
</g>
<!-- UploadsModule -->
<g id="node2" class="node">
<title>UploadsModule</title>
<polygon fill="#8dd3c7" stroke="black" points="156.21,-122 153.21,-126 132.21,-126 129.21,-122 49.79,-122 49.79,-86 156.21,-86 156.21,-122"/>
<text text-anchor="middle" x="103" y="-99.8" font-family="Times,serif" font-size="14.00">UploadsModule</text>
</g>
<!-- UploadsModule&#45;&gt;PaystackModule -->
<g id="edge2" class="edge">
<title>UploadsModule&#45;&gt;PaystackModule</title>
<path fill="none" stroke="black" d="M103,-122.11C103,-141.34 103,-169 103,-169 103,-169 159.16,-169 159.16,-169"/>
<polygon fill="black" stroke="black" points="159.16,-172.5 169.16,-169 159.16,-165.5 159.16,-172.5"/>
</g>
<!-- PaystackService -->
<g id="node4" class="node">
<title>PaystackService</title>
<ellipse fill="#fdb462" stroke="black" cx="372" cy="-104" rx="74.13" ry="18"/>
<text text-anchor="middle" x="372" y="-99.8" font-family="Times,serif" font-size="14.00">PaystackService</text>
</g>
<!-- PaystackService&#45;&gt;PaystackModule -->
<g id="edge3" class="edge">
<title>PaystackService&#45;&gt;PaystackModule</title>
<path fill="none" stroke="black" d="M372,-122.11C372,-141.34 372,-169 372,-169 372,-169 288.69,-169 288.69,-169"/>
<polygon fill="black" stroke="black" points="288.69,-165.5 278.69,-169 288.69,-172.5 288.69,-165.5"/>
</g>
</g>
</svg>
