<?xml version="1.0" encoding="UTF-8" standalone="no"?>
<!DOCTYPE svg PUBLIC "-//W3C//DTD SVG 1.1//EN"
 "http://www.w3.org/Graphics/SVG/1.1/DTD/svg11.dtd">
<!-- Generated by graphviz version 2.47.0 (20210316.0004)
 -->
<!-- Title: dependencies Pages: 1 -->
<svg width="1134pt" height="284pt"
 viewBox="0.00 0.00 1134.00 284.00" xmlns="http://www.w3.org/2000/svg" xmlns:xlink="http://www.w3.org/1999/xlink">
<g id="graph0" class="graph" transform="scale(1 1) rotate(0) translate(4 280)">
<title>dependencies</title>
<polygon fill="white" stroke="transparent" points="-4,4 -4,-280 1130,-280 1130,4 -4,4"/>
<text text-anchor="start" x="542.01" y="-42.4" font-family="Times-12" font-weight="bold" font-size="14.00">Legend</text>
<polygon fill="#ffffb3" stroke="transparent" points="329,-10 329,-30 349,-30 349,-10 329,-10"/>
<text text-anchor="start" x="352.63" y="-15.4" font-family="Times-12" font-size="14.00"> &#160;Declarations</text>
<polygon fill="#8dd3c7" stroke="transparent" points="442,-10 442,-30 462,-30 462,-10 442,-10"/>
<text text-anchor="start" x="465.73" y="-15.4" font-family="Times-12" font-size="14.00"> &#160;Module</text>
<polygon fill="#80b1d3" stroke="transparent" points="528,-10 528,-30 548,-30 548,-10 528,-10"/>
<text text-anchor="start" x="551.78" y="-15.4" font-family="Times-12" font-size="14.00"> &#160;Bootstrap</text>
<polygon fill="#fdb462" stroke="transparent" points="625,-10 625,-30 645,-30 645,-10 625,-10"/>
<text text-anchor="start" x="648.67" y="-15.4" font-family="Times-12" font-size="14.00"> &#160;Providers</text>
<polygon fill="#fb8072" stroke="transparent" points="721,-10 721,-30 741,-30 741,-10 721,-10"/>
<text text-anchor="start" x="744.73" y="-15.4" font-family="Times-12" font-size="14.00"> &#160;Exports</text>
<g id="clust1" class="cluster">
<title>cluster_TicketsModule</title>
<polygon fill="none" stroke="black" stroke-dasharray="1,5" points="8,-70 8,-268 1118,-268 1118,-70 8,-70"/>
</g>
<g id="clust3" class="cluster">
<title>cluster_TicketsModule_imports</title>
<polygon fill="none" stroke="black" points="886,-78 886,-130 1110,-130 1110,-78 886,-78"/>
</g>
<g id="clust6" class="cluster">
<title>cluster_TicketsModule_providers</title>
<polygon fill="none" stroke="black" points="16,-78 16,-130 878,-130 878,-78 16,-78"/>
</g>
<g id="clust4" class="cluster">
<title>cluster_TicketsModule_exports</title>
<polygon fill="none" stroke="black" points="616,-208 616,-260 734,-260 734,-208 616,-208"/>
</g>
<!-- EventsModule -->
<g id="node1" class="node">
<title>EventsModule</title>
<polygon fill="#8dd3c7" stroke="black" points="1101.65,-122 1098.65,-126 1077.65,-126 1074.65,-122 1004.35,-122 1004.35,-86 1101.65,-86 1101.65,-122"/>
<text text-anchor="middle" x="1053" y="-99.8" font-family="Times,serif" font-size="14.00">EventsModule</text>
</g>
<!-- TicketsModule -->
<g id="node3" class="node">
<title>TicketsModule</title>
<polygon fill="#8dd3c7" stroke="black" points="725.26,-187 722.26,-191 701.26,-191 698.26,-187 624.74,-187 624.74,-151 725.26,-151 725.26,-187"/>
<text text-anchor="middle" x="675" y="-164.8" font-family="Times,serif" font-size="14.00">TicketsModule</text>
</g>
<!-- EventsModule&#45;&gt;TicketsModule -->
<g id="edge1" class="edge">
<title>EventsModule&#45;&gt;TicketsModule</title>
<path fill="none" stroke="black" d="M1053,-122.28C1053,-143.32 1053,-175 1053,-175 1053,-175 735.59,-175 735.59,-175"/>
<polygon fill="black" stroke="black" points="735.59,-171.5 725.59,-175 735.59,-178.5 735.59,-171.5"/>
</g>
<!-- UsersModule -->
<g id="node2" class="node">
<title>UsersModule</title>
<polygon fill="#8dd3c7" stroke="black" points="985.92,-122 982.92,-126 961.92,-126 958.92,-122 894.08,-122 894.08,-86 985.92,-86 985.92,-122"/>
<text text-anchor="middle" x="940" y="-99.8" font-family="Times,serif" font-size="14.00">UsersModule</text>
</g>
<!-- UsersModule&#45;&gt;TicketsModule -->
<g id="edge2" class="edge">
<title>UsersModule&#45;&gt;TicketsModule</title>
<path fill="none" stroke="black" d="M940,-122.02C940,-139.37 940,-163 940,-163 940,-163 735.47,-163 735.47,-163"/>
<polygon fill="black" stroke="black" points="735.47,-159.5 725.47,-163 735.47,-166.5 735.47,-159.5"/>
</g>
<!-- TicketsService  -->
<g id="node4" class="node">
<title>TicketsService </title>
<polygon fill="#fb8072" stroke="black" points="726.19,-252 623.81,-252 623.81,-216 726.19,-216 726.19,-252"/>
<text text-anchor="middle" x="675" y="-229.8" font-family="Times,serif" font-size="14.00">TicketsService </text>
</g>
<!-- TicketsModule&#45;&gt;TicketsService  -->
<g id="edge3" class="edge">
<title>TicketsModule&#45;&gt;TicketsService </title>
<path fill="none" stroke="black" stroke-dasharray="5,2" d="M675,-187.11C675,-187.11 675,-205.99 675,-205.99"/>
<polygon fill="black" stroke="black" points="671.5,-205.99 675,-215.99 678.5,-205.99 671.5,-205.99"/>
</g>
<!-- BuyTicketProvider -->
<g id="node5" class="node">
<title>BuyTicketProvider</title>
<ellipse fill="#fdb462" stroke="black" cx="785" cy="-104" rx="85.11" ry="18"/>
<text text-anchor="middle" x="785" y="-99.8" font-family="Times,serif" font-size="14.00">BuyTicketProvider</text>
</g>
<!-- BuyTicketProvider&#45;&gt;TicketsModule -->
<g id="edge4" class="edge">
<title>BuyTicketProvider&#45;&gt;TicketsModule</title>
<path fill="none" stroke="black" d="M712.66,-113.59C712.66,-113.59 712.66,-140.75 712.66,-140.75"/>
<polygon fill="black" stroke="black" points="709.16,-140.75 712.66,-150.75 716.16,-140.75 709.16,-140.75"/>
</g>
<!-- GenerateTicketPdfProvider -->
<g id="node6" class="node">
<title>GenerateTicketPdfProvider</title>
<ellipse fill="#fdb462" stroke="black" cx="565" cy="-104" rx="117.43" ry="18"/>
<text text-anchor="middle" x="565" y="-99.8" font-family="Times,serif" font-size="14.00">GenerateTicketPdfProvider</text>
</g>
<!-- GenerateTicketPdfProvider&#45;&gt;TicketsModule -->
<g id="edge5" class="edge">
<title>GenerateTicketPdfProvider&#45;&gt;TicketsModule</title>
<path fill="none" stroke="black" d="M653.42,-115.92C653.42,-115.92 653.42,-140.77 653.42,-140.77"/>
<polygon fill="black" stroke="black" points="649.92,-140.77 653.42,-150.77 656.92,-140.77 649.92,-140.77"/>
</g>
<!-- TicketsService -->
<g id="node7" class="node">
<title>TicketsService</title>
<ellipse fill="#fdb462" stroke="black" cx="361" cy="-104" rx="68.33" ry="18"/>
<text text-anchor="middle" x="361" y="-99.8" font-family="Times,serif" font-size="14.00">TicketsService</text>
</g>
<!-- TicketsService&#45;&gt;TicketsModule -->
<g id="edge6" class="edge">
<title>TicketsService&#45;&gt;TicketsModule</title>
<path fill="none" stroke="black" d="M361,-122.02C361,-139.37 361,-163 361,-163 361,-163 614.55,-163 614.55,-163"/>
<polygon fill="black" stroke="black" points="614.55,-166.5 624.55,-163 614.55,-159.5 614.55,-166.5"/>
</g>
<!-- UpdateBoughtTicketProvider -->
<g id="node8" class="node">
<title>UpdateBoughtTicketProvider</title>
<ellipse fill="#fdb462" stroke="black" cx="149" cy="-104" rx="125.06" ry="18"/>
<text text-anchor="middle" x="149" y="-99.8" font-family="Times,serif" font-size="14.00">UpdateBoughtTicketProvider</text>
</g>
<!-- UpdateBoughtTicketProvider&#45;&gt;TicketsModule -->
<g id="edge7" class="edge">
<title>UpdateBoughtTicketProvider&#45;&gt;TicketsModule</title>
<path fill="none" stroke="black" d="M149,-122.28C149,-143.32 149,-175 149,-175 149,-175 614.56,-175 614.56,-175"/>
<polygon fill="black" stroke="black" points="614.56,-178.5 624.56,-175 614.56,-171.5 614.56,-178.5"/>
</g>
</g>
</svg>
