<?xml version="1.0" encoding="UTF-8" standalone="no"?>
<!DOCTYPE svg PUBLIC "-//W3C//DTD SVG 1.1//EN"
 "http://www.w3.org/Graphics/SVG/1.1/DTD/svg11.dtd">
<!-- Generated by graphviz version 2.47.0 (20210316.0004)
 -->
<!-- Title: dependencies Pages: 1 -->
<svg width="1395pt" height="211pt"
 viewBox="0.00 0.00 1395.00 211.00" xmlns="http://www.w3.org/2000/svg" xmlns:xlink="http://www.w3.org/1999/xlink">
<g id="graph0" class="graph" transform="scale(1 1) rotate(0) translate(4 207)">
<title>dependencies</title>
<polygon fill="white" stroke="transparent" points="-4,4 -4,-207 1391,-207 1391,4 -4,4"/>
<text text-anchor="start" x="672.51" y="-42.4" font-family="Times-12" font-weight="bold" font-size="14.00">Legend</text>
<polygon fill="#ffffb3" stroke="transparent" points="459.5,-10 459.5,-30 479.5,-30 479.5,-10 459.5,-10"/>
<text text-anchor="start" x="483.13" y="-15.4" font-family="Times-12" font-size="14.00"> &#160;Declarations</text>
<polygon fill="#8dd3c7" stroke="transparent" points="572.5,-10 572.5,-30 592.5,-30 592.5,-10 572.5,-10"/>
<text text-anchor="start" x="596.23" y="-15.4" font-family="Times-12" font-size="14.00"> &#160;Module</text>
<polygon fill="#80b1d3" stroke="transparent" points="658.5,-10 658.5,-30 678.5,-30 678.5,-10 658.5,-10"/>
<text text-anchor="start" x="682.28" y="-15.4" font-family="Times-12" font-size="14.00"> &#160;Bootstrap</text>
<polygon fill="#fdb462" stroke="transparent" points="755.5,-10 755.5,-30 775.5,-30 775.5,-10 755.5,-10"/>
<text text-anchor="start" x="779.17" y="-15.4" font-family="Times-12" font-size="14.00"> &#160;Providers</text>
<polygon fill="#fb8072" stroke="transparent" points="851.5,-10 851.5,-30 871.5,-30 871.5,-10 851.5,-10"/>
<text text-anchor="start" x="875.23" y="-15.4" font-family="Times-12" font-size="14.00"> &#160;Exports</text>
<g id="clust1" class="cluster">
<title>cluster_AppModule</title>
<polygon fill="none" stroke="black" stroke-dasharray="1,5" points="8,-70 8,-195 1379,-195 1379,-70 8,-70"/>
</g>
<g id="clust3" class="cluster">
<title>cluster_AppModule_imports</title>
<polygon fill="none" stroke="black" points="154,-78 154,-130 1371,-130 1371,-78 154,-78"/>
</g>
<g id="clust6" class="cluster">
<title>cluster_AppModule_providers</title>
<polygon fill="none" stroke="black" points="16,-78 16,-130 146,-130 146,-78 16,-78"/>
</g>
<!-- AuthModule -->
<g id="node1" class="node">
<title>AuthModule</title>
<polygon fill="#8dd3c7" stroke="black" points="1362.55,-122 1359.55,-126 1338.55,-126 1335.55,-122 1275.45,-122 1275.45,-86 1362.55,-86 1362.55,-122"/>
<text text-anchor="middle" x="1319" y="-99.8" font-family="Times,serif" font-size="14.00">AuthModule</text>
</g>
<!-- AppModule -->
<g id="node11" class="node">
<title>AppModule</title>
<polygon fill="#8dd3c7" stroke="black" points="753.66,-187 750.66,-191 729.66,-191 726.66,-187 670.34,-187 670.34,-151 753.66,-151 753.66,-187"/>
<text text-anchor="middle" x="712" y="-164.8" font-family="Times,serif" font-size="14.00">AppModule</text>
</g>
<!-- AuthModule&#45;&gt;AppModule -->
<g id="edge1" class="edge">
<title>AuthModule&#45;&gt;AppModule</title>
<path fill="none" stroke="black" d="M1319,-122.09C1319,-145.13 1319,-182 1319,-182 1319,-182 763.72,-182 763.72,-182"/>
<polygon fill="black" stroke="black" points="763.72,-178.5 753.72,-182 763.72,-185.5 763.72,-178.5"/>
</g>
<!-- EventsModule -->
<g id="node2" class="node">
<title>EventsModule</title>
<polygon fill="#8dd3c7" stroke="black" points="1256.65,-122 1253.65,-126 1232.65,-126 1229.65,-122 1159.35,-122 1159.35,-86 1256.65,-86 1256.65,-122"/>
<text text-anchor="middle" x="1208" y="-99.8" font-family="Times,serif" font-size="14.00">EventsModule</text>
</g>
<!-- EventsModule&#45;&gt;AppModule -->
<g id="edge2" class="edge">
<title>EventsModule&#45;&gt;AppModule</title>
<path fill="none" stroke="black" d="M1208,-122.28C1208,-143.32 1208,-175 1208,-175 1208,-175 763.86,-175 763.86,-175"/>
<polygon fill="black" stroke="black" points="763.86,-171.5 753.86,-175 763.86,-178.5 763.86,-171.5"/>
</g>
<!-- MailModule -->
<g id="node3" class="node">
<title>MailModule</title>
<polygon fill="#8dd3c7" stroke="black" points="1140.99,-122 1137.99,-126 1116.99,-126 1113.99,-122 1055.01,-122 1055.01,-86 1140.99,-86 1140.99,-122"/>
<text text-anchor="middle" x="1098" y="-99.8" font-family="Times,serif" font-size="14.00">MailModule</text>
</g>
<!-- MailModule&#45;&gt;AppModule -->
<g id="edge3" class="edge">
<title>MailModule&#45;&gt;AppModule</title>
<path fill="none" stroke="black" d="M1098,-122.11C1098,-141.34 1098,-169 1098,-169 1098,-169 763.68,-169 763.68,-169"/>
<polygon fill="black" stroke="black" points="763.68,-165.5 753.68,-169 763.68,-172.5 763.68,-165.5"/>
</g>
<!-- PaginationModule -->
<g id="node4" class="node">
<title>PaginationModule</title>
<polygon fill="#8dd3c7" stroke="black" points="1036.93,-122 1033.93,-126 1012.93,-126 1009.93,-122 917.07,-122 917.07,-86 1036.93,-86 1036.93,-122"/>
<text text-anchor="middle" x="977" y="-99.8" font-family="Times,serif" font-size="14.00">PaginationModule</text>
</g>
<!-- PaginationModule&#45;&gt;AppModule -->
<g id="edge4" class="edge">
<title>PaginationModule&#45;&gt;AppModule</title>
<path fill="none" stroke="black" d="M977,-122.02C977,-139.37 977,-163 977,-163 977,-163 763.7,-163 763.7,-163"/>
<polygon fill="black" stroke="black" points="763.7,-159.5 753.7,-163 763.7,-166.5 763.7,-159.5"/>
</g>
<!-- PaymentsModule -->
<g id="node5" class="node">
<title>PaymentsModule</title>
<polygon fill="#8dd3c7" stroke="black" points="898.99,-122 895.99,-126 874.99,-126 871.99,-122 785.01,-122 785.01,-86 898.99,-86 898.99,-122"/>
<text text-anchor="middle" x="842" y="-99.8" font-family="Times,serif" font-size="14.00">PaymentsModule</text>
</g>
<!-- PaymentsModule&#45;&gt;AppModule -->
<g id="edge5" class="edge">
<title>PaymentsModule&#45;&gt;AppModule</title>
<path fill="none" stroke="black" d="M842,-122.24C842,-137.57 842,-157 842,-157 842,-157 763.85,-157 763.85,-157"/>
<polygon fill="black" stroke="black" points="763.85,-153.5 753.85,-157 763.85,-160.5 763.85,-153.5"/>
</g>
<!-- PaystackModule -->
<g id="node6" class="node">
<title>PaystackModule</title>
<polygon fill="#8dd3c7" stroke="black" points="766.81,-122 763.81,-126 742.81,-126 739.81,-122 657.19,-122 657.19,-86 766.81,-86 766.81,-122"/>
<text text-anchor="middle" x="712" y="-99.8" font-family="Times,serif" font-size="14.00">PaystackModule</text>
</g>
<!-- PaystackModule&#45;&gt;AppModule -->
<g id="edge6" class="edge">
<title>PaystackModule&#45;&gt;AppModule</title>
<path fill="none" stroke="black" d="M712,-122.11C712,-122.11 712,-140.99 712,-140.99"/>
<polygon fill="black" stroke="black" points="708.5,-140.99 712,-150.99 715.5,-140.99 708.5,-140.99"/>
</g>
<!-- SubscribersModule -->
<g id="node7" class="node">
<title>SubscribersModule</title>
<polygon fill="#8dd3c7" stroke="black" points="639.36,-122 636.36,-126 615.36,-126 612.36,-122 514.64,-122 514.64,-86 639.36,-86 639.36,-122"/>
<text text-anchor="middle" x="577" y="-99.8" font-family="Times,serif" font-size="14.00">SubscribersModule</text>
</g>
<!-- SubscribersModule&#45;&gt;AppModule -->
<g id="edge7" class="edge">
<title>SubscribersModule&#45;&gt;AppModule</title>
<path fill="none" stroke="black" d="M577,-122.24C577,-137.57 577,-157 577,-157 577,-157 660.03,-157 660.03,-157"/>
<polygon fill="black" stroke="black" points="660.03,-160.5 670.03,-157 660.03,-153.5 660.03,-160.5"/>
</g>
<!-- TicketsModule -->
<g id="node8" class="node">
<title>TicketsModule</title>
<polygon fill="#8dd3c7" stroke="black" points="496.26,-122 493.26,-126 472.26,-126 469.26,-122 395.74,-122 395.74,-86 496.26,-86 496.26,-122"/>
<text text-anchor="middle" x="446" y="-99.8" font-family="Times,serif" font-size="14.00">TicketsModule</text>
</g>
<!-- TicketsModule&#45;&gt;AppModule -->
<g id="edge8" class="edge">
<title>TicketsModule&#45;&gt;AppModule</title>
<path fill="none" stroke="black" d="M446,-122.02C446,-139.37 446,-163 446,-163 446,-163 660.14,-163 660.14,-163"/>
<polygon fill="black" stroke="black" points="660.14,-166.5 670.14,-163 660.14,-159.5 660.14,-166.5"/>
</g>
<!-- UploadsModule -->
<g id="node9" class="node">
<title>UploadsModule</title>
<polygon fill="#8dd3c7" stroke="black" points="378.21,-122 375.21,-126 354.21,-126 351.21,-122 271.79,-122 271.79,-86 378.21,-86 378.21,-122"/>
<text text-anchor="middle" x="325" y="-99.8" font-family="Times,serif" font-size="14.00">UploadsModule</text>
</g>
<!-- UploadsModule&#45;&gt;AppModule -->
<g id="edge9" class="edge">
<title>UploadsModule&#45;&gt;AppModule</title>
<path fill="none" stroke="black" d="M325,-122.11C325,-141.34 325,-169 325,-169 325,-169 660.22,-169 660.22,-169"/>
<polygon fill="black" stroke="black" points="660.22,-172.5 670.22,-169 660.22,-165.5 660.22,-172.5"/>
</g>
<!-- UsersModule -->
<g id="node10" class="node">
<title>UsersModule</title>
<polygon fill="#8dd3c7" stroke="black" points="253.92,-122 250.92,-126 229.92,-126 226.92,-122 162.08,-122 162.08,-86 253.92,-86 253.92,-122"/>
<text text-anchor="middle" x="208" y="-99.8" font-family="Times,serif" font-size="14.00">UsersModule</text>
</g>
<!-- UsersModule&#45;&gt;AppModule -->
<g id="edge10" class="edge">
<title>UsersModule&#45;&gt;AppModule</title>
<path fill="none" stroke="black" d="M208,-122.28C208,-143.32 208,-175 208,-175 208,-175 660.33,-175 660.33,-175"/>
<polygon fill="black" stroke="black" points="660.33,-178.5 670.33,-175 660.33,-171.5 660.33,-178.5"/>
</g>
<!-- AppService -->
<g id="node12" class="node">
<title>AppService</title>
<ellipse fill="#fdb462" stroke="black" cx="81" cy="-104" rx="56.74" ry="18"/>
<text text-anchor="middle" x="81" y="-99.8" font-family="Times,serif" font-size="14.00">AppService</text>
</g>
<!-- AppService&#45;&gt;AppModule -->
<g id="edge11" class="edge">
<title>AppService&#45;&gt;AppModule</title>
<path fill="none" stroke="black" d="M81,-122.09C81,-145.13 81,-182 81,-182 81,-182 660.11,-182 660.11,-182"/>
<polygon fill="black" stroke="black" points="660.11,-185.5 670.11,-182 660.11,-178.5 660.11,-185.5"/>
</g>
</g>
</svg>
