<?xml version="1.0" encoding="UTF-8" standalone="no"?>
<!DOCTYPE svg PUBLIC "-//W3C//DTD SVG 1.1//EN"
 "http://www.w3.org/Graphics/SVG/1.1/DTD/svg11.dtd">
<!-- Generated by graphviz version 2.47.0 (20210316.0004)
 -->
<!-- Title: dependencies Pages: 1 -->
<svg width="504pt" height="211pt"
 viewBox="0.00 0.00 504.00 211.00" xmlns="http://www.w3.org/2000/svg" xmlns:xlink="http://www.w3.org/1999/xlink">
<g id="graph0" class="graph" transform="scale(1 1) rotate(0) translate(4 207)">
<title>dependencies</title>
<polygon fill="white" stroke="transparent" points="-4,4 -4,-207 500,-207 500,4 -4,4"/>
<text text-anchor="start" x="227.01" y="-42.4" font-family="Times-12" font-weight="bold" font-size="14.00">Legend</text>
<polygon fill="#ffffb3" stroke="transparent" points="14,-10 14,-30 34,-30 34,-10 14,-10"/>
<text text-anchor="start" x="37.63" y="-15.4" font-family="Times-12" font-size="14.00"> &#160;Declarations</text>
<polygon fill="#8dd3c7" stroke="transparent" points="127,-10 127,-30 147,-30 147,-10 127,-10"/>
<text text-anchor="start" x="150.73" y="-15.4" font-family="Times-12" font-size="14.00"> &#160;Module</text>
<polygon fill="#80b1d3" stroke="transparent" points="213,-10 213,-30 233,-30 233,-10 213,-10"/>
<text text-anchor="start" x="236.78" y="-15.4" font-family="Times-12" font-size="14.00"> &#160;Bootstrap</text>
<polygon fill="#fdb462" stroke="transparent" points="310,-10 310,-30 330,-30 330,-10 310,-10"/>
<text text-anchor="start" x="333.67" y="-15.4" font-family="Times-12" font-size="14.00"> &#160;Providers</text>
<polygon fill="#fb8072" stroke="transparent" points="406,-10 406,-30 426,-30 426,-10 406,-10"/>
<text text-anchor="start" x="429.73" y="-15.4" font-family="Times-12" font-size="14.00"> &#160;Exports</text>
<g id="clust1" class="cluster">
<title>cluster_SubscribersModule</title>
<polygon fill="none" stroke="black" stroke-dasharray="1,5" points="92,-70 92,-195 404,-195 404,-70 92,-70"/>
</g>
<g id="clust6" class="cluster">
<title>cluster_SubscribersModule_providers</title>
<polygon fill="none" stroke="black" points="210,-78 210,-130 396,-130 396,-78 210,-78"/>
</g>
<g id="clust3" class="cluster">
<title>cluster_SubscribersModule_imports</title>
<polygon fill="none" stroke="black" points="100,-78 100,-130 202,-130 202,-78 100,-78"/>
</g>
<!-- MailModule -->
<g id="node1" class="node">
<title>MailModule</title>
<polygon fill="#8dd3c7" stroke="black" points="193.99,-122 190.99,-126 169.99,-126 166.99,-122 108.01,-122 108.01,-86 193.99,-86 193.99,-122"/>
<text text-anchor="middle" x="151" y="-99.8" font-family="Times,serif" font-size="14.00">MailModule</text>
</g>
<!-- SubscribersModule -->
<g id="node2" class="node">
<title>SubscribersModule</title>
<polygon fill="#8dd3c7" stroke="black" points="294.36,-187 291.36,-191 270.36,-191 267.36,-187 169.64,-187 169.64,-151 294.36,-151 294.36,-187"/>
<text text-anchor="middle" x="232" y="-164.8" font-family="Times,serif" font-size="14.00">SubscribersModule</text>
</g>
<!-- MailModule&#45;&gt;SubscribersModule -->
<g id="edge1" class="edge">
<title>MailModule&#45;&gt;SubscribersModule</title>
<path fill="none" stroke="black" d="M181.78,-122.11C181.78,-122.11 181.78,-140.99 181.78,-140.99"/>
<polygon fill="black" stroke="black" points="178.28,-140.99 181.78,-150.99 185.28,-140.99 178.28,-140.99"/>
</g>
<!-- SubscribersService -->
<g id="node3" class="node">
<title>SubscribersService</title>
<ellipse fill="#fdb462" stroke="black" cx="303" cy="-104" rx="85.09" ry="18"/>
<text text-anchor="middle" x="303" y="-99.8" font-family="Times,serif" font-size="14.00">SubscribersService</text>
</g>
<!-- SubscribersService&#45;&gt;SubscribersModule -->
<g id="edge2" class="edge">
<title>SubscribersService&#45;&gt;SubscribersModule</title>
<path fill="none" stroke="black" d="M256.19,-119.08C256.19,-119.08 256.19,-140.76 256.19,-140.76"/>
<polygon fill="black" stroke="black" points="252.69,-140.76 256.19,-150.76 259.69,-140.76 252.69,-140.76"/>
</g>
</g>
</svg>
