<?xml version="1.0" encoding="UTF-8" standalone="no"?>
<!DOCTYPE svg PUBLIC "-//W3C//DTD SVG 1.1//EN"
 "http://www.w3.org/Graphics/SVG/1.1/DTD/svg11.dtd">
<!-- Generated by graphviz version 2.47.0 (20210316.0004)
 -->
<!-- Title: dependencies Pages: 1 -->
<svg width="5450pt" height="507pt"
 viewBox="0.00 0.00 5450.00 507.00" xmlns="http://www.w3.org/2000/svg" xmlns:xlink="http://www.w3.org/1999/xlink">
<g id="graph0" class="graph" transform="scale(1 1) rotate(0) translate(4 503)">
<title>dependencies</title>
<polygon fill="white" stroke="transparent" points="-4,4 -4,-503 5446,-503 5446,4 -4,4"/>
<text text-anchor="start" x="2700.01" y="-42.4" font-family="Times-12" font-weight="bold" font-size="14.00">Legend</text>
<polygon fill="#ffffb3" stroke="transparent" points="2487,-10 2487,-30 2507,-30 2507,-10 2487,-10"/>
<text text-anchor="start" x="2510.63" y="-15.4" font-family="Times-12" font-size="14.00"> &#160;Declarations</text>
<polygon fill="#8dd3c7" stroke="transparent" points="2600,-10 2600,-30 2620,-30 2620,-10 2600,-10"/>
<text text-anchor="start" x="2623.73" y="-15.4" font-family="Times-12" font-size="14.00"> &#160;Module</text>
<polygon fill="#80b1d3" stroke="transparent" points="2686,-10 2686,-30 2706,-30 2706,-10 2686,-10"/>
<text text-anchor="start" x="2709.78" y="-15.4" font-family="Times-12" font-size="14.00"> &#160;Bootstrap</text>
<polygon fill="#fdb462" stroke="transparent" points="2783,-10 2783,-30 2803,-30 2803,-10 2783,-10"/>
<text text-anchor="start" x="2806.67" y="-15.4" font-family="Times-12" font-size="14.00"> &#160;Providers</text>
<polygon fill="#fb8072" stroke="transparent" points="2879,-10 2879,-30 2899,-30 2899,-10 2879,-10"/>
<text text-anchor="start" x="2902.73" y="-15.4" font-family="Times-12" font-size="14.00"> &#160;Exports</text>
<g id="clust1" class="cluster">
<title>cluster_AppModule</title>
<polygon fill="none" stroke="black" stroke-dasharray="1,5" points="3035,-146 3035,-491 3791,-491 3791,-146 3035,-146"/>
</g>
<g id="clust3" class="cluster">
<title>cluster_AppModule_imports</title>
<polygon fill="none" stroke="black" points="3181,-154 3181,-426 3783,-426 3783,-154 3181,-154"/>
</g>
<g id="clust6" class="cluster">
<title>cluster_AppModule_providers</title>
<polygon fill="none" stroke="black" points="3043,-374 3043,-426 3173,-426 3173,-374 3043,-374"/>
</g>
<g id="clust7" class="cluster">
<title>cluster_AuthModule</title>
<polygon fill="none" stroke="black" stroke-dasharray="1,5" points="2134,-70 2134,-138 3486,-138 3486,-70 2134,-70"/>
</g>
<g id="clust10" class="cluster">
<title>cluster_AuthModule_exports</title>
<polygon fill="none" stroke="black" points="3348,-78 3348,-130 3478,-130 3478,-78 3348,-78"/>
</g>
<g id="clust12" class="cluster">
<title>cluster_AuthModule_providers</title>
<polygon fill="none" stroke="black" points="2142,-78 2142,-130 3340,-130 3340,-78 2142,-78"/>
</g>
<g id="clust13" class="cluster">
<title>cluster_EventsModule</title>
<polygon fill="none" stroke="black" stroke-dasharray="1,5" points="8,-146 8,-214 892,-214 892,-146 8,-146"/>
</g>
<g id="clust16" class="cluster">
<title>cluster_EventsModule_exports</title>
<polygon fill="none" stroke="black" points="598,-154 598,-206 884,-206 884,-154 598,-154"/>
</g>
<g id="clust18" class="cluster">
<title>cluster_EventsModule_providers</title>
<polygon fill="none" stroke="black" points="16,-154 16,-206 590,-206 590,-154 16,-154"/>
</g>
<g id="clust19" class="cluster">
<title>cluster_MailModule</title>
<polygon fill="none" stroke="black" stroke-dasharray="1,5" points="3799,-222 3799,-290 4059,-290 4059,-222 3799,-222"/>
</g>
<g id="clust22" class="cluster">
<title>cluster_MailModule_exports</title>
<polygon fill="none" stroke="black" points="3947,-230 3947,-282 4051,-282 4051,-230 3947,-230"/>
</g>
<g id="clust24" class="cluster">
<title>cluster_MailModule_providers</title>
<polygon fill="none" stroke="black" points="3807,-230 3807,-282 3939,-282 3939,-230 3807,-230"/>
</g>
<g id="clust25" class="cluster">
<title>cluster_PaginationModule</title>
<polygon fill="none" stroke="black" stroke-dasharray="1,5" points="4067,-222 4067,-290 4423,-290 4423,-222 4067,-222"/>
</g>
<g id="clust28" class="cluster">
<title>cluster_PaginationModule_exports</title>
<polygon fill="none" stroke="black" points="4271,-230 4271,-282 4415,-282 4415,-230 4271,-230"/>
</g>
<g id="clust30" class="cluster">
<title>cluster_PaginationModule_providers</title>
<polygon fill="none" stroke="black" points="4075,-230 4075,-282 4263,-282 4263,-230 4075,-230"/>
</g>
<g id="clust31" class="cluster">
<title>cluster_PaymentsModule</title>
<polygon fill="none" stroke="black" stroke-dasharray="1,5" points="4030,-70 4030,-138 4218,-138 4218,-70 4030,-70"/>
</g>
<g id="clust36" class="cluster">
<title>cluster_PaymentsModule_providers</title>
<polygon fill="none" stroke="black" points="4038,-78 4038,-130 4210,-130 4210,-78 4038,-78"/>
</g>
<g id="clust37" class="cluster">
<title>cluster_PaystackModule</title>
<polygon fill="none" stroke="black" stroke-dasharray="1,5" points="2847,-298 2847,-366 3027,-366 3027,-298 2847,-298"/>
</g>
<g id="clust42" class="cluster">
<title>cluster_PaystackModule_providers</title>
<polygon fill="none" stroke="black" points="2855,-306 2855,-358 3019,-358 3019,-306 2855,-306"/>
</g>
<g id="clust43" class="cluster">
<title>cluster_SubscribersModule</title>
<polygon fill="none" stroke="black" stroke-dasharray="1,5" points="2825,-146 2825,-214 3027,-214 3027,-146 2825,-146"/>
</g>
<g id="clust48" class="cluster">
<title>cluster_SubscribersModule_providers</title>
<polygon fill="none" stroke="black" points="2833,-154 2833,-206 3019,-206 3019,-154 2833,-154"/>
</g>
<g id="clust49" class="cluster">
<title>cluster_TicketsModule</title>
<polygon fill="none" stroke="black" stroke-dasharray="1,5" points="4431,-222 4431,-290 5434,-290 5434,-222 4431,-222"/>
</g>
<g id="clust52" class="cluster">
<title>cluster_TicketsModule_exports</title>
<polygon fill="none" stroke="black" points="5308,-230 5308,-282 5426,-282 5426,-230 5308,-230"/>
</g>
<g id="clust54" class="cluster">
<title>cluster_TicketsModule_providers</title>
<polygon fill="none" stroke="black" points="4439,-230 4439,-282 5300,-282 5300,-230 4439,-230"/>
</g>
<g id="clust55" class="cluster">
<title>cluster_UploadsModule</title>
<polygon fill="none" stroke="black" stroke-dasharray="1,5" points="3494,-70 3494,-138 4022,-138 4022,-70 3494,-70"/>
</g>
<g id="clust58" class="cluster">
<title>cluster_UploadsModule_exports</title>
<polygon fill="none" stroke="black" points="3890,-78 3890,-130 4014,-130 4014,-78 3890,-78"/>
</g>
<g id="clust60" class="cluster">
<title>cluster_UploadsModule_providers</title>
<polygon fill="none" stroke="black" points="3502,-78 3502,-130 3882,-130 3882,-78 3502,-78"/>
</g>
<g id="clust61" class="cluster">
<title>cluster_UsersModule</title>
<polygon fill="none" stroke="black" stroke-dasharray="1,5" points="900,-146 900,-214 2817,-214 2817,-146 900,-146"/>
</g>
<g id="clust64" class="cluster">
<title>cluster_UsersModule_exports</title>
<polygon fill="none" stroke="black" points="2699,-154 2699,-206 2809,-206 2809,-154 2699,-154"/>
</g>
<g id="clust66" class="cluster">
<title>cluster_UsersModule_providers</title>
<polygon fill="none" stroke="black" points="908,-154 908,-206 2691,-206 2691,-154 908,-154"/>
</g>
<!-- AuthModule -->
<g id="node1" class="node">
<title>AuthModule</title>
<polygon fill="#8dd3c7" stroke="black" points="3276.55,-198 3273.55,-202 3252.55,-202 3249.55,-198 3189.45,-198 3189.45,-162 3276.55,-162 3276.55,-198"/>
<text text-anchor="middle" x="3233" y="-175.8" font-family="Times,serif" font-size="14.00">AuthModule</text>
</g>
<!-- AppModule -->
<g id="node11" class="node">
<title>AppModule</title>
<polygon fill="#8dd3c7" stroke="black" points="3617.66,-483 3614.66,-487 3593.66,-487 3590.66,-483 3534.34,-483 3534.34,-447 3617.66,-447 3617.66,-483"/>
<text text-anchor="middle" x="3576" y="-460.8" font-family="Times,serif" font-size="14.00">AppModule</text>
</g>
<!-- AuthModule&#45;&gt;AppModule -->
<g id="edge1" class="edge">
<title>AuthModule&#45;&gt;AppModule</title>
<path fill="none" stroke="black" d="M3276.56,-180C3284.78,-180 3290.86,-180 3290.86,-180 3290.86,-180 3290.86,-465 3290.86,-465 3290.86,-465 3524.23,-465 3524.23,-465"/>
<polygon fill="black" stroke="black" points="3524.23,-468.5 3534.23,-465 3524.23,-461.5 3524.23,-468.5"/>
</g>
<!-- HashingProvider  -->
<g id="node13" class="node">
<title>HashingProvider </title>
<polygon fill="#fb8072" stroke="black" points="3470.37,-122 3355.63,-122 3355.63,-86 3470.37,-86 3470.37,-122"/>
<text text-anchor="middle" x="3413" y="-99.8" font-family="Times,serif" font-size="14.00">HashingProvider </text>
</g>
<!-- AuthModule&#45;&gt;HashingProvider  -->
<g id="edge12" class="edge">
<title>AuthModule&#45;&gt;HashingProvider </title>
<path fill="none" stroke="black" stroke-dasharray="5,2" d="M3264.27,-161.89C3264.27,-152.1 3264.27,-142 3264.27,-142 3264.27,-142 3364.87,-142 3364.87,-142 3364.87,-142 3364.87,-132.11 3364.87,-132.11"/>
<polygon fill="black" stroke="black" points="3368.37,-132.11 3364.87,-122.11 3361.37,-132.11 3368.37,-132.11"/>
</g>
<!-- EventsModule -->
<g id="node2" class="node">
<title>EventsModule</title>
<polygon fill="#8dd3c7" stroke="black" points="3286.65,-274 3283.65,-278 3262.65,-278 3259.65,-274 3189.35,-274 3189.35,-238 3286.65,-238 3286.65,-274"/>
<text text-anchor="middle" x="3238" y="-251.8" font-family="Times,serif" font-size="14.00">EventsModule</text>
</g>
<!-- TicketsModule -->
<g id="node8" class="node">
<title>TicketsModule</title>
<polygon fill="#8dd3c7" stroke="black" points="3517.26,-350 3514.26,-354 3493.26,-354 3490.26,-350 3416.74,-350 3416.74,-314 3517.26,-314 3517.26,-350"/>
<text text-anchor="middle" x="3467" y="-327.8" font-family="Times,serif" font-size="14.00">TicketsModule</text>
</g>
<!-- EventsModule&#45;&gt;TicketsModule -->
<g id="edge36" class="edge">
<title>EventsModule&#45;&gt;TicketsModule</title>
<path fill="none" stroke="black" d="M3254.28,-274.03C3254.28,-294.77 3254.28,-326 3254.28,-326 3254.28,-326 3406.59,-326 3406.59,-326"/>
<polygon fill="black" stroke="black" points="3406.59,-329.5 3416.59,-326 3406.59,-322.5 3406.59,-329.5"/>
</g>
<!-- EventsModule&#45;&gt;AppModule -->
<g id="edge2" class="edge">
<title>EventsModule&#45;&gt;AppModule</title>
<path fill="none" stroke="black" d="M3221.72,-274.33C3221.72,-326.32 3221.72,-471 3221.72,-471 3221.72,-471 3524.32,-471 3524.32,-471"/>
<polygon fill="black" stroke="black" points="3524.32,-474.5 3534.32,-471 3524.32,-467.5 3524.32,-474.5"/>
</g>
<!-- EventsService  -->
<g id="node20" class="node">
<title>EventsService </title>
<polygon fill="#fb8072" stroke="black" points="705.58,-198 606.42,-198 606.42,-162 705.58,-162 705.58,-198"/>
<text text-anchor="middle" x="656" y="-175.8" font-family="Times,serif" font-size="14.00">EventsService </text>
</g>
<!-- EventsModule&#45;&gt;EventsService  -->
<g id="edge21" class="edge">
<title>EventsModule&#45;&gt;EventsService </title>
<path fill="none" stroke="black" stroke-dasharray="5,2" d="M3189.29,-250C2834.08,-250 656,-250 656,-250 656,-250 656,-208.03 656,-208.03"/>
<polygon fill="black" stroke="black" points="659.5,-208.03 656,-198.03 652.5,-208.03 659.5,-208.03"/>
</g>
<!-- GetUserEventsProvider  -->
<g id="node21" class="node">
<title>GetUserEventsProvider </title>
<polygon fill="#fb8072" stroke="black" points="876.45,-198 723.55,-198 723.55,-162 876.45,-162 876.45,-198"/>
<text text-anchor="middle" x="800" y="-175.8" font-family="Times,serif" font-size="14.00">GetUserEventsProvider </text>
</g>
<!-- EventsModule&#45;&gt;GetUserEventsProvider  -->
<g id="edge22" class="edge">
<title>EventsModule&#45;&gt;GetUserEventsProvider </title>
<path fill="none" stroke="black" stroke-dasharray="5,2" d="M3189.3,-244C2845.69,-244 800,-244 800,-244 800,-244 800,-208.17 800,-208.17"/>
<polygon fill="black" stroke="black" points="803.5,-208.17 800,-198.17 796.5,-208.17 803.5,-208.17"/>
</g>
<!-- MailModule -->
<g id="node3" class="node">
<title>MailModule</title>
<polygon fill="#8dd3c7" stroke="black" points="3774.99,-198 3771.99,-202 3750.99,-202 3747.99,-198 3689.01,-198 3689.01,-162 3774.99,-162 3774.99,-198"/>
<text text-anchor="middle" x="3732" y="-175.8" font-family="Times,serif" font-size="14.00">MailModule</text>
</g>
<!-- SubscribersModule -->
<g id="node7" class="node">
<title>SubscribersModule</title>
<polygon fill="#8dd3c7" stroke="black" points="3577.36,-274 3574.36,-278 3553.36,-278 3550.36,-274 3452.64,-274 3452.64,-238 3577.36,-238 3577.36,-274"/>
<text text-anchor="middle" x="3515" y="-251.8" font-family="Times,serif" font-size="14.00">SubscribersModule</text>
</g>
<!-- MailModule&#45;&gt;SubscribersModule -->
<g id="edge34" class="edge">
<title>MailModule&#45;&gt;SubscribersModule</title>
<path fill="none" stroke="black" d="M3717.67,-198.01C3717.67,-220.49 3717.67,-256 3717.67,-256 3717.67,-256 3587.46,-256 3587.46,-256"/>
<polygon fill="black" stroke="black" points="3587.46,-252.5 3577.46,-256 3587.46,-259.5 3587.46,-252.5"/>
</g>
<!-- MailModule&#45;&gt;AppModule -->
<g id="edge3" class="edge">
<title>MailModule&#45;&gt;AppModule</title>
<path fill="none" stroke="black" d="M3746.33,-198.26C3746.33,-261.16 3746.33,-465 3746.33,-465 3746.33,-465 3627.67,-465 3627.67,-465"/>
<polygon fill="black" stroke="black" points="3627.67,-461.5 3617.67,-465 3627.67,-468.5 3627.67,-461.5"/>
</g>
<!-- MailService  -->
<g id="node25" class="node">
<title>MailService </title>
<polygon fill="#fb8072" stroke="black" points="4042.92,-274 3955.08,-274 3955.08,-238 4042.92,-238 4042.92,-274"/>
<text text-anchor="middle" x="3999" y="-251.8" font-family="Times,serif" font-size="14.00">MailService </text>
</g>
<!-- MailModule&#45;&gt;MailService  -->
<g id="edge26" class="edge">
<title>MailModule&#45;&gt;MailService </title>
<path fill="none" stroke="black" stroke-dasharray="5,2" d="M3775.01,-174C3846.15,-174 3980.55,-174 3980.55,-174 3980.55,-174 3980.55,-227.8 3980.55,-227.8"/>
<polygon fill="black" stroke="black" points="3977.05,-227.8 3980.55,-237.8 3984.05,-227.8 3977.05,-227.8"/>
</g>
<!-- PaginationModule -->
<g id="node4" class="node">
<title>PaginationModule</title>
<polygon fill="#8dd3c7" stroke="black" points="3538.93,-198 3535.93,-202 3514.93,-202 3511.93,-198 3419.07,-198 3419.07,-162 3538.93,-162 3538.93,-198"/>
<text text-anchor="middle" x="3479" y="-175.8" font-family="Times,serif" font-size="14.00">PaginationModule</text>
</g>
<!-- PaginationModule&#45;&gt;EventsModule -->
<g id="edge19" class="edge">
<title>PaginationModule&#45;&gt;EventsModule</title>
<path fill="none" stroke="black" d="M3427.6,-198.03C3427.6,-214.4 3427.6,-236 3427.6,-236 3427.6,-236 3281.8,-236 3281.8,-236 3281.8,-236 3281.8,-236.18 3281.8,-236.18"/>
<polygon fill="black" stroke="black" points="3278.3,-227.85 3281.8,-237.85 3285.3,-227.85 3278.3,-227.85"/>
</g>
<!-- UsersModule -->
<g id="node10" class="node">
<title>UsersModule</title>
<polygon fill="#8dd3c7" stroke="black" points="3396.92,-274 3393.92,-278 3372.92,-278 3369.92,-274 3305.08,-274 3305.08,-238 3396.92,-238 3396.92,-274"/>
<text text-anchor="middle" x="3351" y="-251.8" font-family="Times,serif" font-size="14.00">UsersModule</text>
</g>
<!-- PaginationModule&#45;&gt;UsersModule -->
<g id="edge46" class="edge">
<title>PaginationModule&#45;&gt;UsersModule</title>
<path fill="none" stroke="black" d="M3435.93,-198.03C3435.93,-218.77 3435.93,-250 3435.93,-250 3435.93,-250 3406.94,-250 3406.94,-250"/>
<polygon fill="black" stroke="black" points="3406.94,-246.5 3396.94,-250 3406.94,-253.5 3406.94,-246.5"/>
</g>
<!-- PaginationModule&#45;&gt;AppModule -->
<g id="edge4" class="edge">
<title>PaginationModule&#45;&gt;AppModule</title>
<path fill="none" stroke="black" d="M3504.26,-198.16C3504.26,-203.04 3504.26,-207 3504.26,-207 3504.26,-207 3590.9,-207 3590.9,-207 3590.9,-207 3590.9,-436.86 3590.9,-436.86"/>
<polygon fill="black" stroke="black" points="3587.4,-436.86 3590.9,-446.86 3594.4,-436.86 3587.4,-436.86"/>
</g>
<!-- PaginationProvider  -->
<g id="node27" class="node">
<title>PaginationProvider </title>
<polygon fill="#fb8072" stroke="black" points="4406.59,-274 4279.41,-274 4279.41,-238 4406.59,-238 4406.59,-274"/>
<text text-anchor="middle" x="4343" y="-251.8" font-family="Times,serif" font-size="14.00">PaginationProvider </text>
</g>
<!-- PaginationModule&#45;&gt;PaginationProvider  -->
<g id="edge28" class="edge">
<title>PaginationModule&#45;&gt;PaginationProvider </title>
<path fill="none" stroke="black" stroke-dasharray="5,2" d="M3521.49,-198.08C3521.49,-199.85 3521.49,-201 3521.49,-201 3521.49,-201 4343,-201 4343,-201 4343,-201 4343,-227.99 4343,-227.99"/>
<polygon fill="black" stroke="black" points="4339.5,-227.99 4343,-237.99 4346.5,-227.99 4339.5,-227.99"/>
</g>
<!-- PaymentsModule -->
<g id="node5" class="node">
<title>PaymentsModule</title>
<polygon fill="#8dd3c7" stroke="black" points="3670.99,-198 3667.99,-202 3646.99,-202 3643.99,-198 3557.01,-198 3557.01,-162 3670.99,-162 3670.99,-198"/>
<text text-anchor="middle" x="3614" y="-175.8" font-family="Times,serif" font-size="14.00">PaymentsModule</text>
</g>
<!-- PaymentsModule&#45;&gt;AppModule -->
<g id="edge5" class="edge">
<title>PaymentsModule&#45;&gt;AppModule</title>
<path fill="none" stroke="black" d="M3604.36,-198.26C3604.36,-198.26 3604.36,-436.89 3604.36,-436.89"/>
<polygon fill="black" stroke="black" points="3600.86,-436.89 3604.36,-446.89 3607.86,-436.89 3600.86,-436.89"/>
</g>
<!-- PaystackModule -->
<g id="node6" class="node">
<title>PaystackModule</title>
<polygon fill="#8dd3c7" stroke="black" points="3463.81,-418 3460.81,-422 3439.81,-422 3436.81,-418 3354.19,-418 3354.19,-382 3463.81,-382 3463.81,-418"/>
<text text-anchor="middle" x="3409" y="-395.8" font-family="Times,serif" font-size="14.00">PaystackModule</text>
</g>
<!-- PaystackModule&#45;&gt;AppModule -->
<g id="edge6" class="edge">
<title>PaystackModule&#45;&gt;AppModule</title>
<path fill="none" stroke="black" d="M3463.92,-400C3501.66,-400 3544.99,-400 3544.99,-400 3544.99,-400 3544.99,-436.89 3544.99,-436.89"/>
<polygon fill="black" stroke="black" points="3541.49,-436.89 3544.99,-446.89 3548.49,-436.89 3541.49,-436.89"/>
</g>
<!-- SubscribersModule&#45;&gt;AppModule -->
<g id="edge7" class="edge">
<title>SubscribersModule&#45;&gt;AppModule</title>
<path fill="none" stroke="black" d="M3566.62,-274.18C3566.62,-274.18 3566.62,-436.71 3566.62,-436.71"/>
<polygon fill="black" stroke="black" points="3563.12,-436.71 3566.62,-446.71 3570.12,-436.71 3563.12,-436.71"/>
</g>
<!-- TicketsModule&#45;&gt;PaystackModule -->
<g id="edge31" class="edge">
<title>TicketsModule&#45;&gt;PaystackModule</title>
<path fill="none" stroke="black" d="M3440.14,-350.22C3440.14,-350.22 3440.14,-371.73 3440.14,-371.73"/>
<polygon fill="black" stroke="black" points="3436.64,-371.73 3440.14,-381.73 3443.64,-371.73 3436.64,-371.73"/>
</g>
<!-- TicketsModule&#45;&gt;AppModule -->
<g id="edge8" class="edge">
<title>TicketsModule&#45;&gt;AppModule</title>
<path fill="none" stroke="black" d="M3517.37,-345C3537.41,-345 3555.8,-345 3555.8,-345 3555.8,-345 3555.8,-436.77 3555.8,-436.77"/>
<polygon fill="black" stroke="black" points="3552.3,-436.77 3555.8,-446.77 3559.3,-436.77 3552.3,-436.77"/>
</g>
<!-- TicketsService  -->
<g id="node32" class="node">
<title>TicketsService </title>
<polygon fill="#fb8072" stroke="black" points="5418.19,-274 5315.81,-274 5315.81,-238 5418.19,-238 5418.19,-274"/>
<text text-anchor="middle" x="5367" y="-251.8" font-family="Times,serif" font-size="14.00">TicketsService </text>
</g>
<!-- TicketsModule&#45;&gt;TicketsService  -->
<g id="edge38" class="edge">
<title>TicketsModule&#45;&gt;TicketsService </title>
<path fill="none" stroke="black" stroke-dasharray="5,2" d="M3517.33,-340C3818.3,-340 5367,-340 5367,-340 5367,-340 5367,-284.23 5367,-284.23"/>
<polygon fill="black" stroke="black" points="5370.5,-284.23 5367,-274.23 5363.5,-284.23 5370.5,-284.23"/>
</g>
<!-- UploadsModule -->
<g id="node9" class="node">
<title>UploadsModule</title>
<polygon fill="#8dd3c7" stroke="black" points="3401.21,-198 3398.21,-202 3377.21,-202 3374.21,-198 3294.79,-198 3294.79,-162 3401.21,-162 3401.21,-198"/>
<text text-anchor="middle" x="3348" y="-175.8" font-family="Times,serif" font-size="14.00">UploadsModule</text>
</g>
<!-- UploadsModule&#45;&gt;EventsModule -->
<g id="edge20" class="edge">
<title>UploadsModule&#45;&gt;EventsModule</title>
<path fill="none" stroke="black" d="M3298.36,-198.01C3298.36,-220.49 3298.36,-256 3298.36,-256 3298.36,-256 3296.72,-256 3296.72,-256"/>
<polygon fill="black" stroke="black" points="3296.72,-252.5 3286.72,-256 3296.72,-259.5 3296.72,-252.5"/>
</g>
<!-- UploadsModule&#45;&gt;PaystackModule -->
<g id="edge32" class="edge">
<title>UploadsModule&#45;&gt;PaystackModule</title>
<path fill="none" stroke="black" d="M3401.15,-180C3405.84,-180 3408.86,-180 3408.86,-180 3408.86,-180 3408.86,-372 3408.86,-372"/>
<polygon fill="black" stroke="black" points="3405.36,-372 3408.86,-382 3412.36,-372 3405.36,-372"/>
</g>
<!-- UploadsModule&#45;&gt;AppModule -->
<g id="edge9" class="edge">
<title>UploadsModule&#45;&gt;AppModule</title>
<path fill="none" stroke="black" d="M3301.83,-198.31C3301.83,-260.38 3301.83,-459 3301.83,-459 3301.83,-459 3524.06,-459 3524.06,-459"/>
<polygon fill="black" stroke="black" points="3524.06,-462.5 3534.06,-459 3524.06,-455.5 3524.06,-462.5"/>
</g>
<!-- UploadsService  -->
<g id="node37" class="node">
<title>UploadsService </title>
<polygon fill="#fb8072" stroke="black" points="4006.13,-122 3897.87,-122 3897.87,-86 4006.13,-86 4006.13,-122"/>
<text text-anchor="middle" x="3952" y="-99.8" font-family="Times,serif" font-size="14.00">UploadsService </text>
</g>
<!-- UploadsModule&#45;&gt;UploadsService  -->
<g id="edge43" class="edge">
<title>UploadsModule&#45;&gt;UploadsService </title>
<path fill="none" stroke="black" stroke-dasharray="5,2" d="M3373.93,-161.94C3373.93,-157.51 3373.93,-154 3373.93,-154 3373.93,-154 3914.58,-154 3914.58,-154 3914.58,-154 3914.58,-132.05 3914.58,-132.05"/>
<polygon fill="black" stroke="black" points="3918.08,-132.05 3914.58,-122.05 3911.08,-132.05 3918.08,-132.05"/>
</g>
<!-- UsersModule&#45;&gt;TicketsModule -->
<g id="edge37" class="edge">
<title>UsersModule&#45;&gt;TicketsModule</title>
<path fill="none" stroke="black" d="M3396.8,-262C3420.39,-262 3444.25,-262 3444.25,-262 3444.25,-262 3444.25,-303.97 3444.25,-303.97"/>
<polygon fill="black" stroke="black" points="3440.75,-303.97 3444.25,-313.97 3447.75,-303.97 3440.75,-303.97"/>
</g>
<!-- UsersModule&#45;&gt;AppModule -->
<g id="edge10" class="edge">
<title>UsersModule&#45;&gt;AppModule</title>
<path fill="none" stroke="black" d="M3329.82,-274.18C3329.82,-322.95 3329.82,-453 3329.82,-453 3329.82,-453 3524.24,-453 3524.24,-453"/>
<polygon fill="black" stroke="black" points="3524.24,-456.5 3534.24,-453 3524.24,-449.5 3524.24,-456.5"/>
</g>
<!-- UsersService  -->
<g id="node40" class="node">
<title>UsersService </title>
<polygon fill="#fb8072" stroke="black" points="2800.85,-198 2707.15,-198 2707.15,-162 2800.85,-162 2800.85,-198"/>
<text text-anchor="middle" x="2754" y="-175.8" font-family="Times,serif" font-size="14.00">UsersService </text>
</g>
<!-- UsersModule&#45;&gt;UsersService  -->
<g id="edge47" class="edge">
<title>UsersModule&#45;&gt;UsersService </title>
<path fill="none" stroke="black" stroke-dasharray="5,2" d="M3386.55,-237.51C3386.55,-225.86 3386.55,-213 3386.55,-213 3386.55,-213 2754,-213 2754,-213 2754,-213 2754,-208.04 2754,-208.04"/>
<polygon fill="black" stroke="black" points="2757.5,-208.04 2754,-198.04 2750.5,-208.04 2757.5,-208.04"/>
</g>
<!-- AppService -->
<g id="node12" class="node">
<title>AppService</title>
<ellipse fill="#fdb462" stroke="black" cx="3108" cy="-400" rx="56.74" ry="18"/>
<text text-anchor="middle" x="3108" y="-395.8" font-family="Times,serif" font-size="14.00">AppService</text>
</g>
<!-- AppService&#45;&gt;AppModule -->
<g id="edge11" class="edge">
<title>AppService&#45;&gt;AppModule</title>
<path fill="none" stroke="black" d="M3108,-418.09C3108,-441.13 3108,-478 3108,-478 3108,-478 3524.06,-478 3524.06,-478"/>
<polygon fill="black" stroke="black" points="3524.06,-481.5 3534.06,-478 3524.06,-474.5 3524.06,-481.5"/>
</g>
<!-- AuthService -->
<g id="node14" class="node">
<title>AuthService</title>
<ellipse fill="#fdb462" stroke="black" cx="2675" cy="-104" rx="59.11" ry="18"/>
<text text-anchor="middle" x="2675" y="-99.8" font-family="Times,serif" font-size="14.00">AuthService</text>
</g>
<!-- AuthService&#45;&gt;AuthModule -->
<g id="edge13" class="edge">
<title>AuthService&#45;&gt;AuthModule</title>
<path fill="none" stroke="black" d="M2720.81,-115.48C2720.81,-122.44 2720.81,-130 2720.81,-130 2720.81,-130 3226.75,-130 3226.75,-130 3226.75,-130 3226.75,-151.95 3226.75,-151.95"/>
<polygon fill="black" stroke="black" points="3223.25,-151.95 3226.75,-161.95 3230.25,-151.95 3223.25,-151.95"/>
</g>
<!-- ForgotPasswordProvider -->
<g id="node15" class="node">
<title>ForgotPasswordProvider</title>
<ellipse fill="#fdb462" stroke="black" cx="2491" cy="-104" rx="107.1" ry="18"/>
<text text-anchor="middle" x="2491" y="-99.8" font-family="Times,serif" font-size="14.00">ForgotPasswordProvider</text>
</g>
<!-- ForgotPasswordProvider&#45;&gt;AuthModule -->
<g id="edge14" class="edge">
<title>ForgotPasswordProvider&#45;&gt;AuthModule</title>
<path fill="none" stroke="black" d="M2578.54,-114.49C2578.54,-123.14 2578.54,-134 2578.54,-134 2578.54,-134 3214.24,-134 3214.24,-134 3214.24,-134 3214.24,-151.82 3214.24,-151.82"/>
<polygon fill="black" stroke="black" points="3210.74,-151.82 3214.24,-161.82 3217.74,-151.82 3210.74,-151.82"/>
</g>
<!-- GenerateTokensProvider -->
<g id="node16" class="node">
<title>GenerateTokensProvider</title>
<ellipse fill="#fdb462" stroke="black" cx="2258" cy="-104" rx="107.63" ry="18"/>
<text text-anchor="middle" x="2258" y="-99.8" font-family="Times,serif" font-size="14.00">GenerateTokensProvider</text>
</g>
<!-- GenerateTokensProvider&#45;&gt;AuthModule -->
<g id="edge15" class="edge">
<title>GenerateTokensProvider&#45;&gt;AuthModule</title>
<path fill="none" stroke="black" d="M2324.27,-118.22C2324.27,-127.54 2324.27,-138 2324.27,-138 2324.27,-138 3201.73,-138 3201.73,-138 3201.73,-138 3201.73,-151.94 3201.73,-151.94"/>
<polygon fill="black" stroke="black" points="3198.23,-151.94 3201.73,-161.94 3205.23,-151.94 3198.23,-151.94"/>
</g>
<!-- RefreshTokenProvider -->
<g id="node17" class="node">
<title>RefreshTokenProvider</title>
<ellipse fill="#fdb462" stroke="black" cx="3233" cy="-104" rx="98.98" ry="18"/>
<text text-anchor="middle" x="3233" y="-99.8" font-family="Times,serif" font-size="14.00">RefreshTokenProvider</text>
</g>
<!-- RefreshTokenProvider&#45;&gt;AuthModule -->
<g id="edge16" class="edge">
<title>RefreshTokenProvider&#45;&gt;AuthModule</title>
<path fill="none" stroke="black" d="M3251.76,-122.01C3251.76,-122.01 3251.76,-151.85 3251.76,-151.85"/>
<polygon fill="black" stroke="black" points="3248.26,-151.85 3251.76,-161.85 3255.26,-151.85 3248.26,-151.85"/>
</g>
<!-- ResetPasswordProvider -->
<g id="node18" class="node">
<title>ResetPasswordProvider</title>
<ellipse fill="#fdb462" stroke="black" cx="3013" cy="-104" rx="102.51" ry="18"/>
<text text-anchor="middle" x="3013" y="-99.8" font-family="Times,serif" font-size="14.00">ResetPasswordProvider</text>
</g>
<!-- ResetPasswordProvider&#45;&gt;AuthModule -->
<g id="edge17" class="edge">
<title>ResetPasswordProvider&#45;&gt;AuthModule</title>
<path fill="none" stroke="black" d="M3083.57,-117.24C3083.57,-139.01 3083.57,-180 3083.57,-180 3083.57,-180 3179.38,-180 3179.38,-180"/>
<polygon fill="black" stroke="black" points="3179.38,-183.5 3189.38,-180 3179.38,-176.5 3179.38,-183.5"/>
</g>
<!-- SignInProvider -->
<g id="node19" class="node">
<title>SignInProvider</title>
<ellipse fill="#fdb462" stroke="black" cx="2822" cy="-104" rx="70.08" ry="18"/>
<text text-anchor="middle" x="2822" y="-99.8" font-family="Times,serif" font-size="14.00">SignInProvider</text>
</g>
<!-- SignInProvider&#45;&gt;AuthModule -->
<g id="edge18" class="edge">
<title>SignInProvider&#45;&gt;AuthModule</title>
<path fill="none" stroke="black" d="M2866.5,-118.06C2866.5,-122.37 2866.5,-126 2866.5,-126 2866.5,-126 3239.25,-126 3239.25,-126 3239.25,-126 3239.25,-151.72 3239.25,-151.72"/>
<polygon fill="black" stroke="black" points="3235.75,-151.72 3239.25,-161.72 3242.75,-151.72 3235.75,-151.72"/>
</g>
<!-- CreateEventProvider -->
<g id="node22" class="node">
<title>CreateEventProvider</title>
<ellipse fill="#fdb462" stroke="black" cx="490" cy="-180" rx="92.03" ry="18"/>
<text text-anchor="middle" x="490" y="-175.8" font-family="Times,serif" font-size="14.00">CreateEventProvider</text>
</g>
<!-- CreateEventProvider&#45;&gt;EventsModule -->
<g id="edge23" class="edge">
<title>CreateEventProvider&#45;&gt;EventsModule</title>
<path fill="none" stroke="black" d="M490,-198.01C490,-220.49 490,-256 490,-256 490,-256 3179.14,-256 3179.14,-256"/>
<polygon fill="black" stroke="black" points="3179.14,-259.5 3189.14,-256 3179.14,-252.5 3179.14,-259.5"/>
</g>
<!-- EventsService -->
<g id="node23" class="node">
<title>EventsService</title>
<ellipse fill="#fdb462" stroke="black" cx="314" cy="-180" rx="66.05" ry="18"/>
<text text-anchor="middle" x="314" y="-175.8" font-family="Times,serif" font-size="14.00">EventsService</text>
</g>
<!-- EventsService&#45;&gt;EventsModule -->
<g id="edge24" class="edge">
<title>EventsService&#45;&gt;EventsModule</title>
<path fill="none" stroke="black" d="M314,-198.2C314,-222.36 314,-262 314,-262 314,-262 3179.08,-262 3179.08,-262"/>
<polygon fill="black" stroke="black" points="3179.08,-265.5 3189.08,-262 3179.08,-258.5 3179.08,-265.5"/>
</g>
<!-- GetUserEventsProvider -->
<g id="node24" class="node">
<title>GetUserEventsProvider</title>
<ellipse fill="#fdb462" stroke="black" cx="127" cy="-180" rx="102.99" ry="18"/>
<text text-anchor="middle" x="127" y="-175.8" font-family="Times,serif" font-size="14.00">GetUserEventsProvider</text>
</g>
<!-- GetUserEventsProvider&#45;&gt;EventsModule -->
<g id="edge25" class="edge">
<title>GetUserEventsProvider&#45;&gt;EventsModule</title>
<path fill="none" stroke="black" d="M127,-198.23C127,-224.01 127,-268 127,-268 127,-268 3179.13,-268 3179.13,-268"/>
<polygon fill="black" stroke="black" points="3179.13,-271.5 3189.13,-268 3179.13,-264.5 3179.13,-271.5"/>
</g>
<!-- MailService -->
<g id="node26" class="node">
<title>MailService</title>
<ellipse fill="#fdb462" stroke="black" cx="3873" cy="-256" rx="58.46" ry="18"/>
<text text-anchor="middle" x="3873" y="-251.8" font-family="Times,serif" font-size="14.00">MailService</text>
</g>
<!-- MailService&#45;&gt;MailModule -->
<g id="edge27" class="edge">
<title>MailService&#45;&gt;MailModule</title>
<path fill="none" stroke="black" d="M3844.47,-240.12C3844.47,-219.46 3844.47,-186 3844.47,-186 3844.47,-186 3785.16,-186 3785.16,-186"/>
<polygon fill="black" stroke="black" points="3785.16,-182.5 3775.16,-186 3785.16,-189.5 3785.16,-182.5"/>
</g>
<!-- PaginationProvider -->
<g id="node28" class="node">
<title>PaginationProvider</title>
<ellipse fill="#fdb462" stroke="black" cx="4169" cy="-256" rx="85.69" ry="18"/>
<text text-anchor="middle" x="4169" y="-251.8" font-family="Times,serif" font-size="14.00">PaginationProvider</text>
</g>
<!-- PaginationProvider&#45;&gt;PaginationModule -->
<g id="edge29" class="edge">
<title>PaginationProvider&#45;&gt;PaginationModule</title>
<path fill="none" stroke="black" d="M4142.47,-238.68C4142.47,-223.56 4142.47,-204 4142.47,-204 4142.47,-204 3487.03,-204 3487.03,-204 3487.03,-204 3487.03,-203.42 3487.03,-203.42"/>
<polygon fill="black" stroke="black" points="3490.53,-208.19 3487.03,-198.19 3483.53,-208.19 3490.53,-208.19"/>
</g>
<!-- PaymentsService -->
<g id="node29" class="node">
<title>PaymentsService</title>
<ellipse fill="#fdb462" stroke="black" cx="4124" cy="-104" rx="77.58" ry="18"/>
<text text-anchor="middle" x="4124" y="-99.8" font-family="Times,serif" font-size="14.00">PaymentsService</text>
</g>
<!-- PaymentsService&#45;&gt;PaymentsModule -->
<g id="edge30" class="edge">
<title>PaymentsService&#45;&gt;PaymentsModule</title>
<path fill="none" stroke="black" d="M4064.93,-115.72C4064.93,-131.6 4064.93,-158 4064.93,-158 4064.93,-158 3614,-158 3614,-158 3614,-158 3614,-158.38 3614,-158.38"/>
<polygon fill="black" stroke="black" points="3610.5,-151.83 3614,-161.83 3617.5,-151.83 3610.5,-151.83"/>
</g>
<!-- PaystackService -->
<g id="node30" class="node">
<title>PaystackService</title>
<ellipse fill="#fdb462" stroke="black" cx="2937" cy="-332" rx="74.13" ry="18"/>
<text text-anchor="middle" x="2937" y="-327.8" font-family="Times,serif" font-size="14.00">PaystackService</text>
</g>
<!-- PaystackService&#45;&gt;PaystackModule -->
<g id="edge33" class="edge">
<title>PaystackService&#45;&gt;PaystackModule</title>
<path fill="none" stroke="black" d="M3007.46,-338C3131.42,-338 3375.53,-338 3375.53,-338 3375.53,-338 3375.53,-371.73 3375.53,-371.73"/>
<polygon fill="black" stroke="black" points="3372.03,-371.73 3375.53,-381.73 3379.03,-371.73 3372.03,-371.73"/>
</g>
<!-- SubscribersService -->
<g id="node31" class="node">
<title>SubscribersService</title>
<ellipse fill="#fdb462" stroke="black" cx="2926" cy="-180" rx="85.09" ry="18"/>
<text text-anchor="middle" x="2926" y="-175.8" font-family="Times,serif" font-size="14.00">SubscribersService</text>
</g>
<!-- SubscribersService&#45;&gt;SubscribersModule -->
<g id="edge35" class="edge">
<title>SubscribersService&#45;&gt;SubscribersModule</title>
<path fill="none" stroke="black" d="M2936.86,-198.14C2936.86,-204.46 2936.86,-210 2936.86,-210 2936.86,-210 3469.8,-210 3469.8,-210 3469.8,-210 3469.8,-227.82 3469.8,-227.82"/>
<polygon fill="black" stroke="black" points="3466.3,-227.82 3469.8,-237.82 3473.3,-227.82 3466.3,-227.82"/>
</g>
<!-- BuyTicketProvider -->
<g id="node33" class="node">
<title>BuyTicketProvider</title>
<ellipse fill="#fdb462" stroke="black" cx="4784" cy="-256" rx="85.11" ry="18"/>
<text text-anchor="middle" x="4784" y="-251.8" font-family="Times,serif" font-size="14.00">BuyTicketProvider</text>
</g>
<!-- BuyTicketProvider&#45;&gt;TicketsModule -->
<g id="edge39" class="edge">
<title>BuyTicketProvider&#45;&gt;TicketsModule</title>
<path fill="none" stroke="black" d="M4784,-274.13C4784,-294.57 4784,-325 4784,-325 4784,-325 3527.42,-325 3527.42,-325"/>
<polygon fill="black" stroke="black" points="3527.42,-321.5 3517.42,-325 3527.42,-328.5 3527.42,-321.5"/>
</g>
<!-- GenerateTicketPdfProvider -->
<g id="node34" class="node">
<title>GenerateTicketPdfProvider</title>
<ellipse fill="#fdb462" stroke="black" cx="4564" cy="-256" rx="117.43" ry="18"/>
<text text-anchor="middle" x="4564" y="-251.8" font-family="Times,serif" font-size="14.00">GenerateTicketPdfProvider</text>
</g>
<!-- GenerateTicketPdfProvider&#45;&gt;TicketsModule -->
<g id="edge40" class="edge">
<title>GenerateTicketPdfProvider&#45;&gt;TicketsModule</title>
<path fill="none" stroke="black" d="M4564,-274.17C4564,-293.09 4564,-320 4564,-320 4564,-320 3527.35,-320 3527.35,-320"/>
<polygon fill="black" stroke="black" points="3527.35,-316.5 3517.35,-320 3527.35,-323.5 3527.35,-316.5"/>
</g>
<!-- TicketsService -->
<g id="node35" class="node">
<title>TicketsService</title>
<ellipse fill="#fdb462" stroke="black" cx="5224" cy="-256" rx="68.33" ry="18"/>
<text text-anchor="middle" x="5224" y="-251.8" font-family="Times,serif" font-size="14.00">TicketsService</text>
</g>
<!-- TicketsService&#45;&gt;TicketsModule -->
<g id="edge41" class="edge">
<title>TicketsService&#45;&gt;TicketsModule</title>
<path fill="none" stroke="black" d="M5224,-274.32C5224,-297.66 5224,-335 5224,-335 5224,-335 3527.69,-335 3527.69,-335"/>
<polygon fill="black" stroke="black" points="3527.69,-331.5 3517.69,-335 3527.69,-338.5 3527.69,-331.5"/>
</g>
<!-- UpdateBoughtTicketProvider -->
<g id="node36" class="node">
<title>UpdateBoughtTicketProvider</title>
<ellipse fill="#fdb462" stroke="black" cx="5012" cy="-256" rx="125.06" ry="18"/>
<text text-anchor="middle" x="5012" y="-251.8" font-family="Times,serif" font-size="14.00">UpdateBoughtTicketProvider</text>
</g>
<!-- UpdateBoughtTicketProvider&#45;&gt;TicketsModule -->
<g id="edge42" class="edge">
<title>UpdateBoughtTicketProvider&#45;&gt;TicketsModule</title>
<path fill="none" stroke="black" d="M5012,-274.29C5012,-296.21 5012,-330 5012,-330 5012,-330 3527.53,-330 3527.53,-330"/>
<polygon fill="black" stroke="black" points="3527.53,-326.5 3517.53,-330 3527.53,-333.5 3527.53,-326.5"/>
</g>
<!-- UploadToAwsProvider -->
<g id="node38" class="node">
<title>UploadToAwsProvider</title>
<ellipse fill="#fdb462" stroke="black" cx="3611" cy="-104" rx="101.29" ry="18"/>
<text text-anchor="middle" x="3611" y="-99.8" font-family="Times,serif" font-size="14.00">UploadToAwsProvider</text>
</g>
<!-- UploadToAwsProvider&#45;&gt;UploadsModule -->
<g id="edge44" class="edge">
<title>UploadToAwsProvider&#45;&gt;UploadsModule</title>
<path fill="none" stroke="black" d="M3524.29,-113.32C3524.29,-125.69 3524.29,-146 3524.29,-146 3524.29,-146 3382.99,-146 3382.99,-146 3382.99,-146 3382.99,-151.81 3382.99,-151.81"/>
<polygon fill="black" stroke="black" points="3379.49,-151.81 3382.99,-161.81 3386.49,-151.81 3379.49,-151.81"/>
</g>
<!-- UploadsService -->
<g id="node39" class="node">
<title>UploadsService</title>
<ellipse fill="#fdb462" stroke="black" cx="3802" cy="-104" rx="72.35" ry="18"/>
<text text-anchor="middle" x="3802" y="-99.8" font-family="Times,serif" font-size="14.00">UploadsService</text>
</g>
<!-- UploadsService&#45;&gt;UploadsModule -->
<g id="edge45" class="edge">
<title>UploadsService&#45;&gt;UploadsModule</title>
<path fill="none" stroke="black" d="M3752.41,-117.55C3752.41,-131.12 3752.41,-150 3752.41,-150 3752.41,-150 3392.05,-150 3392.05,-150 3392.05,-150 3392.05,-151.86 3392.05,-151.86"/>
<polygon fill="black" stroke="black" points="3388.55,-151.86 3392.05,-161.86 3395.55,-151.86 3388.55,-151.86"/>
</g>
<!-- ChangeUserPasswordProvider -->
<g id="node41" class="node">
<title>ChangeUserPasswordProvider</title>
<ellipse fill="#fdb462" stroke="black" cx="2412" cy="-180" rx="129.05" ry="18"/>
<text text-anchor="middle" x="2412" y="-175.8" font-family="Times,serif" font-size="14.00">ChangeUserPasswordProvider</text>
</g>
<!-- ChangeUserPasswordProvider&#45;&gt;UsersModule -->
<g id="edge48" class="edge">
<title>ChangeUserPasswordProvider&#45;&gt;UsersModule</title>
<path fill="none" stroke="black" d="M2412,-198.11C2412,-207.9 2412,-218 2412,-218 2412,-218 3366.24,-218 3366.24,-218 3366.24,-218 3366.24,-227.89 3366.24,-227.89"/>
<polygon fill="black" stroke="black" points="3362.74,-227.89 3366.24,-237.89 3369.74,-227.89 3362.74,-227.89"/>
</g>
<!-- CreaterUsersProviders -->
<g id="node42" class="node">
<title>CreaterUsersProviders</title>
<ellipse fill="#fdb462" stroke="black" cx="2167" cy="-180" rx="98.39" ry="18"/>
<text text-anchor="middle" x="2167" y="-175.8" font-family="Times,serif" font-size="14.00">CreaterUsersProviders</text>
</g>
<!-- CreaterUsersProviders&#45;&gt;UsersModule -->
<g id="edge49" class="edge">
<title>CreaterUsersProviders&#45;&gt;UsersModule</title>
<path fill="none" stroke="black" d="M2167,-198.1C2167,-209.09 2167,-221 2167,-221 2167,-221 3356.08,-221 3356.08,-221 3356.08,-221 3356.08,-227.68 3356.08,-227.68"/>
<polygon fill="black" stroke="black" points="3352.58,-227.68 3356.08,-237.68 3359.58,-227.68 3352.58,-227.68"/>
</g>
<!-- FindOneByIdProvider -->
<g id="node43" class="node">
<title>FindOneByIdProvider</title>
<ellipse fill="#fdb462" stroke="black" cx="1953" cy="-180" rx="97.3" ry="18"/>
<text text-anchor="middle" x="1953" y="-175.8" font-family="Times,serif" font-size="14.00">FindOneByIdProvider</text>
</g>
<!-- FindOneByIdProvider&#45;&gt;UsersModule -->
<g id="edge50" class="edge">
<title>FindOneByIdProvider&#45;&gt;UsersModule</title>
<path fill="none" stroke="black" d="M1953,-198.15C1953,-210.27 1953,-224 1953,-224 1953,-224 3345.92,-224 3345.92,-224 3345.92,-224 3345.92,-227.76 3345.92,-227.76"/>
<polygon fill="black" stroke="black" points="3342.42,-227.76 3345.92,-237.76 3349.42,-227.76 3342.42,-227.76"/>
</g>
<!-- FindOneUserByEmailProvider -->
<g id="node44" class="node">
<title>FindOneUserByEmailProvider</title>
<ellipse fill="#fdb462" stroke="black" cx="1707" cy="-180" rx="130.8" ry="18"/>
<text text-anchor="middle" x="1707" y="-175.8" font-family="Times,serif" font-size="14.00">FindOneUserByEmailProvider</text>
</g>
<!-- FindOneUserByEmailProvider&#45;&gt;UsersModule -->
<g id="edge51" class="edge">
<title>FindOneUserByEmailProvider&#45;&gt;UsersModule</title>
<path fill="none" stroke="black" d="M1707,-198.04C1707,-211.29 1707,-227 1707,-227 1707,-227 3335.76,-227 3335.76,-227 3335.76,-227 3335.76,-228.08 3335.76,-228.08"/>
<polygon fill="black" stroke="black" points="3332.26,-227.8 3335.76,-237.8 3339.26,-227.8 3332.26,-227.8"/>
</g>
<!-- FindUserByResetOtpAndExpiryTimeProvider -->
<g id="node45" class="node">
<title>FindUserByResetOtpAndExpiryTimeProvider</title>
<ellipse fill="#fdb462" stroke="black" cx="1368" cy="-180" rx="190.95" ry="18"/>
<text text-anchor="middle" x="1368" y="-175.8" font-family="Times,serif" font-size="14.00">FindUserByResetOtpAndExpiryTimeProvider</text>
</g>
<!-- FindUserByResetOtpAndExpiryTimeProvider&#45;&gt;UsersModule -->
<g id="edge52" class="edge">
<title>FindUserByResetOtpAndExpiryTimeProvider&#45;&gt;UsersModule</title>
<path fill="none" stroke="black" d="M1368,-198.05C1368,-212.37 1368,-230 1368,-230 1368,-230 3325.61,-230 3325.61,-230 3325.61,-230 3325.61,-230.79 3325.61,-230.79"/>
<polygon fill="black" stroke="black" points="3322.11,-227.94 3325.61,-237.94 3329.11,-227.94 3322.11,-227.94"/>
</g>
<!-- StoreOtpAndExpireProvider -->
<g id="node46" class="node">
<title>StoreOtpAndExpireProvider</title>
<ellipse fill="#fdb462" stroke="black" cx="1038" cy="-180" rx="121.55" ry="18"/>
<text text-anchor="middle" x="1038" y="-175.8" font-family="Times,serif" font-size="14.00">StoreOtpAndExpireProvider</text>
</g>
<!-- StoreOtpAndExpireProvider&#45;&gt;UsersModule -->
<g id="edge53" class="edge">
<title>StoreOtpAndExpireProvider&#45;&gt;UsersModule</title>
<path fill="none" stroke="black" d="M1038,-198.24C1038,-213.57 1038,-233 1038,-233 1038,-233 3315.45,-233 3315.45,-233 3315.45,-233 3315.45,-233.49 3315.45,-233.49"/>
<polygon fill="black" stroke="black" points="3311.95,-227.88 3315.45,-237.88 3318.95,-227.88 3311.95,-227.88"/>
</g>
<!-- UsersService -->
<g id="node47" class="node">
<title>UsersService</title>
<ellipse fill="#fdb462" stroke="black" cx="2621" cy="-180" rx="61.95" ry="18"/>
<text text-anchor="middle" x="2621" y="-175.8" font-family="Times,serif" font-size="14.00">UsersService</text>
</g>
<!-- UsersService&#45;&gt;UsersModule -->
<g id="edge54" class="edge">
<title>UsersService&#45;&gt;UsersModule</title>
<path fill="none" stroke="black" d="M2621,-198C2621,-207 2621,-216 2621,-216 2621,-216 3376.39,-216 3376.39,-216 3376.39,-216 3376.39,-227.87 3376.39,-227.87"/>
<polygon fill="black" stroke="black" points="3372.89,-227.87 3376.39,-237.87 3379.89,-227.87 3372.89,-227.87"/>
</g>
</g>
</svg>
